<?xml version="1.0"?>
<svg width="640" height="480" xmlns="http://www.w3.org/2000/svg" xmlns:svg="http://www.w3.org/2000/svg"
    xmlns:xlink="http://www.w3.org/1999/xlink">
    <!-- Created with SVG-edit - https://github.com/SVG-Edit/svgedit-->
    <defs>
        <symbol height="297mm" id="svg_47" viewBox="0 0 210 297" width="210mm" xmlns="http://www.w3.org/2000/svg"
            xmlns:svg="http://www.w3.org/2000/svg">

            <metadata id="svg_46">image/svg+xml</metadata>
            <g id="svg_3">
                <path
                    d="m0.78396,0.63608c46.80626,16.30553 54.09221,89.47944 80.53188,104.13367l44.59251,-0.75595c-40.85958,-7.65408 -42.64926,-28.9543 -60.00785,-67.37858c-2.11309,-4.36121 -13.33076,-32.49425 -38.27258,-35.52315c-6.35777,-0.77208 -26.84396,-0.47599 -26.84396,-0.47599z"
                    fill="#000000" id="svg_45" stroke="#000000" stroke-width="0.194731px" />
                <rect fill="#000000" height="97.974731" id="svg_44" stroke-width="0.248435" width="2.645836"
                    x="18.180649" y="6.006514" />
                <rect fill="#000000" height="75.582077" id="svg_43" stroke-width="0.218205" transform="rotate(90)"
                    width="2.645836" x="102.12395" y="-156.89798" />
                <path
                    d="m19.31458,61.64792l27.78125,0c-24.0969,3.05641 -23.52726,2.19066 -27.78125,18.52083l0,-18.52083z"
                    fill="#000000" id="svg_42" stroke="#000000" stroke-width="0.108621px" />
                <g id="svg_38" transform="translate(-1.8520834,-54.768753)">
                    <path
                        d="m84.28,121.81456c2.81441,9.20375 8.19375,16.11819 13.61954,21.52759l60.85046,-87.77965l-28.71132,0.52917l-45.75868,65.72289z"
                        fill="#000000" id="svg_41" stroke="#000000" stroke-width="0.234871px" />
                    <rect fill="#000000" height="72.988869" id="svg_40" stroke-width="0.21443" transform="rotate(90)"
                        width="2.645836" x="55.902672" y="-153.45833" />
                    <path
                        d="m74.08333,55.5625l28.43154,0.4303c-24.09084,3.77088 -24.00836,3.14737 -28.26129,23.29491l-0.17025,-23.72521z"
                        fill="#000000" id="svg_39" stroke="#000000" stroke-width="0.120636px" />
                </g>
                <path
                    d="m156.89789,104.77496l-29.10417,-0.52917c24.09087,-3.77088 24.85125,-2.87121 29.10417,-23.01871l0,23.54788z"
                    fill="#000000" id="svg_37" stroke="#000000" stroke-width="0.120636px" />
                <path
                    d="m20.90208,105.03955l-10.84792,0l0.00013,-0.00006c8.20196,-3.84467 9.40204,-3.58258 10.71946,-23.75722l0.12833,23.75728z"
                    fill="#000000" id="svg_36" stroke="#000000" stroke-width="0.067188px" />
                <path
                    d="m94.91097,87.2274c-1.93652,-1.97959 -2.59751,-2.70734 -2.59751,-2.85987c0,-0.08332 -0.21047,-0.31705 -0.46772,-0.51941c-0.25724,-0.20235 -0.46772,-0.41766 -0.46772,-0.47847c0,-0.17222 -2.07369,-2.8213 -2.26334,-2.89137c-0.09284,-0.0343 -0.16881,-0.13475 -0.16881,-0.22322c0,-0.16258 -2.05909,-3.44785 -2.42774,-3.87345c-0.10966,-0.12661 -0.19648,-0.27451 -0.19293,-0.32868c0.01347,-0.20571 -0.9893,-2.06328 -1.14613,-2.12314c-0.09042,-0.03451 -0.11681,-0.13975 -0.05865,-0.23386c0.05816,-0.09411 0.0026,-0.17111 -0.12356,-0.17111c-0.12612,0 -0.17679,-0.05252 -0.1126,-0.11671c0.06419,-0.06419 -0.06531,-0.46409 -0.28777,-0.88867c-0.22246,-0.42458 -0.41515,-0.81405 -0.42819,-0.8655c-0.20041,-0.79078 -0.34589,-1.12254 -0.49224,-1.12254c-0.09782,0 -0.13831,-0.06398 -0.08998,-0.14217c0.04833,-0.07819 -0.04447,-0.436 -0.20622,-0.79512c-0.16175,-0.35913 -0.31208,-0.7161 -0.33407,-0.79328c-0.02199,-0.07717 -0.06104,-0.18241 -0.08676,-0.23386c-0.02572,-0.05145 -0.06782,-0.17773 -0.09355,-0.28063c-0.02572,-0.1029 -0.06782,-0.22919 -0.09354,-0.28063c-0.02572,-0.05145 -0.0573,-0.17072 -0.07016,-0.26505c-0.01286,-0.09432 -0.07737,-0.22548 -0.14335,-0.29146c-0.15043,-0.15043 0.0213,-0.84666 0.20884,-0.84666c0.13,0 1.49994,-1.95033 1.50751,-2.14618c0.0019,-0.04949 0.19369,-0.29522 0.42618,-0.54607c0.23248,-0.25086 0.54603,-0.69486 0.69677,-0.98667c0.15075,-0.29182 0.36747,-0.61476 0.48161,-0.71766c0.25825,-0.23283 2.801,-3.91313 2.74372,-3.97118c-0.02297,-0.02328 0.16346,-0.26376 0.41428,-0.5344c0.25083,-0.27065 0.56388,-0.7357 0.69568,-1.03344c0.1318,-0.29775 0.29135,-0.54136 0.35456,-0.54136c0.12051,0 1.4231,-1.89587 1.41397,-2.05798c-0.0029,-0.05145 0.20259,-0.31783 0.45665,-0.59196c0.25405,-0.27413 0.58525,-0.73717 0.73599,-1.02899c0.15074,-0.29181 0.36747,-0.61476 0.4816,-0.71766c0.3667,-0.33059 2.69235,-3.78786 2.69235,-4.00239c0,-0.1139 0.0682,-0.2071 0.15151,-0.2071c0.0833,0 0.77552,-0.90504 1.5382,-2.01121c0.76266,-1.10616 1.35252,-2.0112 1.31077,-2.0112c-0.0417,0 0.14697,-0.24048 0.41937,-0.5344c0.27238,-0.29392 0.60309,-0.77801 0.73488,-1.07576c0.1318,-0.29775 0.29135,-0.54136 0.35456,-0.54136c0.11269,0 1.57059,-2.11074 1.5153,-2.19383c-0.0155,-0.02328 0.16205,-0.24757 0.39454,-0.49842c0.23248,-0.25086 0.54603,-0.69486 0.69677,-0.98667c0.15075,-0.29182 0.36747,-0.61476 0.48161,-0.71766c0.36669,-0.33059 2.69235,-3.78786 2.69235,-4.00239c0,-0.11391 0.0682,-0.20711 0.15151,-0.20711c0.0833,0 0.77552,-0.90504 1.53819,-2.0112c0.76268,-1.10616 1.35253,-2.0112 1.31079,-2.0112c-0.0417,0 0.14697,-0.24048 0.41936,-0.5344c0.2724,-0.29392 0.6031,-0.77801 0.7349,-1.07576c0.13179,-0.29775 0.29135,-0.54136 0.35456,-0.54136c0.11441,0 1.38851,-1.84145 1.45319,-2.1003c0.0187,-0.07472 0.22416,-0.3411 0.45664,-0.59196c0.23249,-0.25085 0.54604,-0.69485 0.69678,-0.98667c0.15074,-0.29181 0.36747,-0.61476 0.4816,-0.71766c0.25927,-0.23373 2.69235,-3.75746 2.69235,-3.89921c0,-0.05716 0.20739,-0.32768 0.46086,-0.60118c0.25346,-0.2735 0.56868,-0.74088 0.70048,-1.03863c0.13179,-0.29775 0.29134,-0.54136 0.35456,-0.54136c0.11441,0 1.3885,-1.84145 1.45318,-2.10029c0.0187,-0.07472 0.23917,-0.3573 0.49,-0.62795c0.25082,-0.27064 0.56388,-0.73569 0.69567,-1.03344c0.1318,-0.29775 0.29135,-0.54136 0.35456,-0.54136c0.11442,0 1.38851,-1.84145 1.45319,-2.10029c0.0187,-0.07472 0.22417,-0.34111 0.45665,-0.59196c0.23248,-0.25086 0.5459,-0.69486 0.69648,-0.98667c0.15058,-0.29181 0.33736,-0.57782 0.41506,-0.63557c0.0777,-0.05775 0.69149,-0.89965 1.36396,-1.87089l1.22269,-1.76588l-20.50938,-0.0476l-20.50934,-0.0476l-2.03272,0.67525c-2.58458,0.85856 -4.04378,1.72533 -5.4871,3.25935c-2.1401,2.27458 -3.18553,5.16876 -5.23591,14.49528c-0.21875,0.995 -0.26215,-0.13923 -0.38202,-9.98292c-0.07438,-6.108 -0.09551,-11.14517 -0.04698,-11.1937c0.04854,-0.04854 5.42048,-0.00661 11.93764,0.09316c6.51715,0.09978 22.37309,0.13601 35.23544,0.08051c12.86234,-0.0555 24.22798,-0.09804 25.25697,-0.09453c1.02898,0.00352 3.78047,-0.07636 6.11441,-0.17749c2.33394,-0.10113 4.58308,-0.1265 4.99809,-0.05639l0.75455,0.12748l-1.02245,1.45915c-0.56235,0.80253 -1.02245,1.55333 -1.02245,1.66845c0,0.11513 -0.0723,0.20932 -0.1606,0.20932c-0.18071,0 -1.5232,1.95853 -1.5232,2.22217c0,0.09347 -0.13833,0.22303 -0.30741,0.28791c-0.16907,0.06488 -0.2621,0.16328 -0.20672,0.21866c0.0554,0.05538 -0.0979,0.31492 -0.34053,0.57676c-0.24267,0.26185 -0.54905,0.7197 -0.68085,1.01744c-0.13179,0.29775 -0.29134,0.54136 -0.35456,0.54136c-0.15652,0 -1.47752,2.00466 -1.47752,2.24219c0,0.10448 -0.0723,0.18997 -0.1606,0.18997c-0.19382,0 -1.62183,2.09261 -1.56396,2.29183c0.0224,0.07718 -0.0315,0.14032 -0.11984,0.14032c-0.16576,0 -1.45192,1.8419 -1.48159,2.12178c-0.009,0.08654 -0.13673,0.25493 -0.28344,0.37418c-0.38049,0.30927 -2.75159,3.78383 -2.75159,4.03213c0,0.1139 -0.0723,0.2071 -0.1606,0.2071c-0.18878,0 -1.52319,1.96429 -1.52319,2.24218c0,0.10449 -0.0723,0.18997 -0.16061,0.18997c-0.18878,0 -1.52319,1.96429 -1.52319,2.24219c0,0.10448 -0.0723,0.18996 -0.1606,0.18996c-0.19382,0 -1.62183,2.09262 -1.56396,2.29184c0.0224,0.07717 -0.0315,0.14032 -0.11984,0.14032c-0.16576,0 -1.45192,1.8419 -1.4816,2.12178c-0.009,0.08654 -0.13731,0.25493 -0.28475,0.37418c-0.38166,0.30869 -4.43407,6.21774 -4.43407,6.46556c0,0.1132 -0.0723,0.20582 -0.1606,0.20582c-0.18071,0 -1.52319,1.95853 -1.52319,2.22217c0,0.09347 -0.13834,0.22304 -0.30742,0.28792c-0.16907,0.06488 -0.2621,0.16327 -0.20672,0.21865c0.0554,0.05538 -0.0979,0.31492 -0.34053,0.57677c-0.24267,0.26184 -0.54905,0.71969 -0.68084,1.01744c-0.1318,0.29774 -0.29135,0.54136 -0.35456,0.54136c-0.16226,0 -1.56775,2.12157 -1.51829,2.29183c0.0224,0.07717 -0.0315,0.14032 -0.11984,0.14032c-0.16576,0 -1.45192,1.8419 -1.48159,2.12179c-0.009,0.08654 -0.13673,0.25492 -0.28344,0.37417c-0.38049,0.30927 -2.75159,3.78384 -2.75159,4.03213c0,0.1139 -0.0723,0.2071 -0.1606,0.2071c-0.18071,0 -1.52319,1.95853 -1.52319,2.22217c0,0.09347 -0.13834,0.22304 -0.30742,0.28792c-0.16907,0.06488 -0.2621,0.16327 -0.20672,0.21865c0.0554,0.05538 -0.0979,0.31492 -0.34053,0.57677c-0.24267,0.26184 -0.54905,0.71969 -0.68084,1.01744c-0.1318,0.29775 -0.29135,0.54136 -0.35456,0.54136c-0.15653,0 -1.47753,2.00465 -1.47753,2.24219c0,0.10448 -0.0723,0.18996 -0.1606,0.18996c-0.19382,0 -1.62183,2.09262 -1.56396,2.29184c0.0224,0.07717 -0.0315,0.14031 -0.11984,0.14031c-0.15293,0 -1.49633,1.90118 -1.55273,2.19741c-0.0148,0.07766 -0.12862,0.22539 -0.25297,0.32829c-0.35554,0.29422 -2.71091,3.77168 -2.71091,4.00239c0,0.11391 -0.0723,0.2071 -0.16061,0.2071c-0.18071,0 -1.52319,1.95854 -1.52319,2.22217c0,0.09347 -0.13834,0.22304 -0.30741,0.28792c-0.16908,0.06488 -0.2621,0.16327 -0.20673,0.21865c0.0554,0.05538 -0.0979,0.31492 -0.34053,0.57677c-0.24266,0.26185 -0.54905,0.71969 -0.68084,1.01744c-0.1318,0.29775 -0.29135,0.54136 -0.35456,0.54136c-0.16226,0 -1.56775,2.12157 -1.51829,2.29184c0.0224,0.07718 -0.0315,0.14031 -0.11984,0.14031c-0.19381,0 -1.62183,2.09262 -1.56396,2.29184c0.0224,0.07717 -0.0315,0.14031 -0.11984,0.14031c-0.16576,0 -1.45191,1.8419 -1.48159,2.12179c-0.009,0.08654 -0.13673,0.25492 -0.28344,0.37418c-0.38049,0.30927 -2.75157,3.78383 -2.75157,4.03212c0,0.11391 -0.0723,0.20711 -0.1606,0.20711c-0.18072,0 -1.52319,1.95853 -1.52319,2.22217c0,0.09347 -0.13162,0.22046 -0.29249,0.28219c-0.16087,0.06173 -0.24009,0.19702 -0.17605,0.30065c0.064,0.10362 0.032,0.1884 -0.0711,0.1884c-0.10315,0 -0.33675,0.25258 -0.5191,0.56127c-0.18235,0.3087 -0.37654,0.56052 -0.43153,0.5596c-0.055,-0.0011 -0.57279,-0.48501 -1.15069,-1.07576l-0.00001,0z"
                    fill="#999999" id="svg_35" stroke-width="0.187089" />
                <path
                    d="m94.42328,86.57744c-1.72094,-1.77176 -2.79944,-3.00021 -3.39319,-3.86492c-0.22482,-0.32742 -0.75876,-1.01203 -1.18653,-1.52136c-0.42778,-0.50932 -0.9499,-1.22369 -1.16026,-1.5875c-0.21037,-0.3638 -0.77045,-1.25677 -1.24463,-1.98437c-0.72943,-1.11927 -1.25132,-2.04396 -2.18338,-3.8685c-0.08334,-0.16314 -0.19618,-0.29709 -0.25075,-0.29766c-0.05457,-0.00053 -0.09922,-0.10046 -0.09922,-0.22199c0,-0.19147 -0.35143,-1.06846 -0.99821,-2.49102c-0.09924,-0.21828 -0.39337,-0.96242 -0.65362,-1.65364c-0.26024,-0.69123 -0.52945,-1.39048 -0.59822,-1.55391c-0.15068,-0.35804 -0.0036,-0.79746 0.38377,-1.1464c0.15442,-0.1391 0.57823,-0.70464 0.94181,-1.25677c0.36358,-0.55212 1.04529,-1.53964 1.51492,-2.19449c0.46963,-0.65484 1.4254,-2.02406 2.12394,-3.0427c1.91108,-2.78686 2.1262,-3.09593 2.86605,-4.11782c0.37543,-0.51855 0.80635,-1.15024 0.95759,-1.40376c0.15125,-0.25351 0.46993,-0.72221 0.70819,-1.04155c1.65494,-2.21812 3.73398,-5.26549 3.73398,-5.4731c0,-0.0517 0.2386,-0.36506 0.53021,-0.69635c0.29161,-0.33129 1.0391,-1.35246 1.66108,-2.26926c1.68925,-2.48994 1.98453,-2.91611 2.62153,-3.78358c0.32057,-0.43656 0.7977,-1.12117 1.06029,-1.52136c0.26258,-0.40018 0.86159,-1.26338 1.33113,-1.91822c1.32283,-1.84492 3.11449,-4.50105 3.11449,-4.61724c0,-0.05756 0.2386,-0.37572 0.53021,-0.70701c0.29161,-0.33129 1.03911,-1.35245 1.66109,-2.26926c1.68926,-2.48994 1.98454,-2.9161 2.62154,-3.78358c0.32057,-0.43656 0.79817,-1.12117 1.06133,-1.52135c0.26315,-0.40018 0.76065,-1.12893 1.10553,-1.61945c0.34489,-0.49051 1.23575,-1.77043 1.97968,-2.84427c0.74393,-1.07383 1.56545,-2.25008 1.8256,-2.61389c0.26015,-0.3638 0.61598,-0.86981 0.79074,-1.12448c0.17476,-0.25466 0.71013,-1.02856 1.18971,-1.71979c0.47957,-0.69122 1.07701,-1.55442 1.32763,-1.91823c0.25061,-0.3638 0.7166,-1.01864 1.03551,-1.4552c0.31891,-0.43657 0.7946,-1.12118 1.05708,-1.52136c0.5317,-0.81063 1.49612,-2.1946 3.02461,-4.34041c0.56108,-0.78769 1.05843,-1.53192 1.10522,-1.65384c0.0794,-0.20681 -1.30047,-0.2217 -20.55224,-0.22178l-20.63728,-0.0001l-1.74007,0.59603c-2.18326,0.74782 -3.28165,1.2989 -4.45977,2.23754c-2.71437,2.1626 -4.06676,5.18397 -5.80712,12.97371c-0.27635,1.23692 -0.55164,2.30551 -0.61176,2.37463c-0.06011,0.06912 -0.11253,-0.40712 -0.11649,-1.05833c-0.0039,-0.65121 -0.05432,-5.14284 -0.11191,-9.98141c-0.05759,-4.83856 -0.07866,-9.01158 -0.04683,-9.27337l0.05789,-0.47599l30.51416,0.06151c22.89937,0.04617 32.92415,0.01651 40.17146,-0.1188c10.60463,-0.198 13.10596,-0.21638 13.22515,-0.09719c0.0723,0.07232 -1.52446,2.56931 -2.21812,3.46861c-0.16027,0.20778 -0.51029,0.7138 -0.77783,1.12448c-0.26753,0.41068 -0.60984,0.88274 -0.76067,1.04902c-0.15084,0.16627 -0.27426,0.32941 -0.27426,0.36251c0,0.08574 -1.14264,1.80352 -1.38159,2.077c-0.3351,0.38352 -1.23098,1.73417 -1.40611,2.11988c-0.0909,0.20009 -0.21136,0.3638 -0.26779,0.3638c-0.0564,0 -0.47068,0.55067 -0.92055,1.2237c-0.44986,0.67303 -0.98022,1.43206 -1.17858,1.68672c-0.19835,0.25466 -0.53071,0.76068 -0.73856,1.12448c-0.20786,0.3638 -0.59889,0.92935 -0.86895,1.25677c-0.27007,0.32742 -0.94267,1.27992 -1.49467,2.11666c-0.552,0.83675 -1.23309,1.81902 -1.51354,2.18282c-0.28045,0.3638 -0.68107,0.95789 -0.89025,1.32021c-0.20919,0.36231 -0.48942,0.76782 -0.62272,0.90113c-0.35546,0.35546 -1.28439,1.82546 -1.28439,2.0325c0,0.09786 -0.0576,0.17793 -0.12801,0.17793c-0.14857,0 -1.04208,1.17558 -1.40769,1.85208c-0.13763,0.25466 -0.43686,0.67885 -0.66495,0.94263c-0.22809,0.26379 -0.5832,0.7698 -0.78912,1.12448c-0.20593,0.35468 -0.74006,1.12653 -1.18696,1.71522c-0.4469,0.58869 -1.53604,2.15392 -2.42032,3.47828c-0.88428,1.32436 -1.84956,2.71382 -2.14508,3.08767c-0.29552,0.37386 -0.66079,0.9218 -0.81172,1.21763c-0.15092,0.29584 -0.35748,0.59863 -0.45902,0.67288c-0.10153,0.07425 -0.25654,0.2575 -0.34447,0.40724c-0.3827,0.65178 -1.05543,1.63441 -1.62952,2.38021c-0.34077,0.44269 -0.74527,1.038 -0.8989,1.32292c-0.15362,0.28491 -0.53614,0.84133 -0.85004,1.23647c-0.3139,0.39514 -0.68123,0.93506 -0.8163,1.19982c-0.13507,0.26475 -0.46758,0.74513 -0.73891,1.0675c-0.27133,0.32236 -0.96188,1.30049 -1.53457,2.17361c-0.57269,0.87313 -1.21665,1.79586 -1.43102,2.05052c-0.21437,0.25467 -0.61117,0.84139 -0.88178,1.30383c-0.27061,0.46244 -0.56979,0.87065 -0.66484,0.90712c-0.0951,0.03648 -0.17283,0.13568 -0.17283,0.22046c0,0.08478 -0.16692,0.36118 -0.37095,0.61423c-0.20402,0.25305 -0.4946,0.67474 -0.64573,0.93709c-0.15113,0.26235 -0.4158,0.63689 -0.58816,0.83232c-0.17236,0.19542 -0.53421,0.72491 -0.80411,1.17664c-0.26989,0.45174 -0.60629,0.9404 -0.74754,1.08592c-0.14125,0.14552 -0.59302,0.7706 -1.00395,1.38906c-1.36255,2.05073 -2.18133,3.2336 -2.7014,3.90261c-0.28281,0.3638 -0.93563,1.3163 -1.45072,2.11666c-0.51508,0.80037 -1.15261,1.7183 -1.41672,2.03986c-0.26412,0.32156 -0.66196,0.90669 -0.88409,1.30029c-0.22214,0.39361 -0.51461,0.78479 -0.64994,0.86931c-0.13533,0.08452 -0.24606,0.22407 -0.24606,0.31013c0,0.08606 -0.1376,0.32474 -0.30577,0.53042c-0.16817,0.20567 -0.46819,0.64184 -0.6667,0.96926c-0.19851,0.32742 -0.58901,0.88381 -0.86776,1.23642c-0.27875,0.35261 -0.63562,0.89899 -0.79303,1.21418c-0.15742,0.3152 -0.33763,0.59225 -0.40047,0.61567c-0.17652,0.06579 -1.46419,1.98546 -1.46419,2.18281c0,0.09619 -0.058,0.17488 -0.12884,0.17488c-0.13795,0 -1.45866,1.81719 -1.45866,2.00699c0,0.06238 -0.27843,0.45488 -0.61874,0.87222c-0.34031,0.41735 -1.02479,1.38389 -1.52107,2.14787c-0.49627,0.76399 -1.17424,1.74625 -1.50659,2.18282c-0.33236,0.43656 -0.73432,1.03187 -0.89326,1.32291c-0.15893,0.29104 -0.39414,0.60766 -0.52268,0.70359c-0.12855,0.09593 -0.20172,0.22621 -0.16259,0.28952c0.0391,0.06331 -0.008,0.16342 -0.10364,0.22246c-0.0961,0.05904 -0.3098,0.30083 -0.47481,0.5373c-0.16502,0.23647 -0.34379,0.42995 -0.39728,0.42995c-0.0535,0 -0.77868,-0.70157 -1.61156,-1.55904z"
                    fill="#999999" id="svg_34" stroke-width="0.132292" />
                <path
                    d="m94.42328,86.582c-1.79346,-1.84103 -4.08454,-4.57355 -5.35077,-6.38174c-1.09659,-1.56596 -3.61618,-5.82653 -3.85376,-6.51665c-0.04383,-0.12733 -0.13229,-0.23151 -0.19656,-0.23151c-0.06427,0 -0.11687,-0.08877 -0.11687,-0.19727c0,-0.17455 -0.47708,-1.37772 -0.99712,-2.51471c-0.09984,-0.21828 -0.39446,-0.96242 -0.65471,-1.65364c-0.26024,-0.69123 -0.52923,-1.39001 -0.59775,-1.55286c-0.15649,-0.37197 -0.05907,-0.64133 0.44203,-1.22209c0.21822,-0.25292 0.6102,-0.7887 0.87107,-1.19063c0.26087,-0.40193 1.19542,-1.74281 2.07678,-2.97974c0.88136,-1.23692 1.8793,-2.66567 2.21764,-3.175c0.73163,-1.10135 1.30001,-1.91761 2.2225,-3.19177c0.37543,-0.51855 0.80635,-1.15227 0.95759,-1.40827c0.15125,-0.25601 0.9365,-1.37955 1.74501,-2.49677c1.49255,-2.06245 2.69716,-3.85723 2.69716,-4.01855c0,-0.04885 0.22899,-0.34897 0.50886,-0.66692c0.27987,-0.31795 1.02418,-1.33911 1.65402,-2.26926c0.62984,-0.93014 1.4403,-2.10788 1.80103,-2.61721c0.36072,-0.50932 1.0211,-1.45936 1.46749,-2.1112c0.44639,-0.65183 1.51004,-2.16988 2.36366,-3.37343c0.85362,-1.20356 1.78409,-2.57524 2.06773,-3.04818c0.28363,-0.47294 0.72819,-1.10744 0.98791,-1.41c0.25972,-0.30256 1.0053,-1.33467 1.65685,-2.29359c0.65154,-0.95891 1.46434,-2.14011 1.80621,-2.62489c0.34187,-0.48478 1.00934,-1.44696 1.48326,-2.13818c0.47391,-0.69123 1.1467,-1.6568 1.49507,-2.14571c0.34838,-0.48892 1.24075,-1.76884 1.98306,-2.84428c0.7423,-1.07543 1.5625,-2.25298 1.82266,-2.61679c0.26016,-0.3638 0.61732,-0.86981 0.7937,-1.12448c1.5692,-2.26568 2.20342,-3.1783 2.71472,-3.9064c0.32742,-0.46624 0.9086,-1.31097 1.2915,-1.87717c0.75455,-1.11575 1.69976,-2.46637 2.37653,-3.39583c0.23478,-0.32244 0.87899,-1.2316 1.43157,-2.02035l1.00469,-1.4341l-0.37324,-0.0831c-0.20528,-0.04571 -9.4901,-0.09 -20.63294,-0.09843l-20.25967,-0.01532l-1.76686,0.60412c-2.87509,0.98305 -4.36633,1.9104 -5.896,3.66652c-1.70695,1.95967 -2.82528,4.90908 -4.27403,11.27205c-0.31477,1.38244 -0.62153,2.57009 -0.6817,2.63921c-0.06017,0.06912 -0.11264,-0.40712 -0.1166,-1.05833c-0.0039,-0.6512 -0.05432,-5.14284 -0.1119,-9.98141c-0.05759,-4.83856 -0.07866,-9.01162 -0.04681,-9.27345l0.0579,-0.47607l30.44799,0.06179c22.91547,0.0465 32.83714,0.01701 40.10531,-0.11925c10.58588,-0.19844 13.23611,-0.21819 13.35479,-0.09951c0.07,0.07004 -1.58765,2.68746 -2.12674,3.35806c-0.11699,0.14552 -0.5369,0.75572 -0.93314,1.35599c-0.39624,0.60027 -0.77621,1.0914 -0.84439,1.0914c-0.0682,0 -0.12396,0.05895 -0.12396,0.13101c0,0.15977 -0.99786,1.67622 -1.69834,2.58097c-0.28167,0.3638 -0.68327,0.9579 -0.89246,1.32021c-0.20919,0.36232 -0.48456,0.76297 -0.61194,0.89035c-0.21462,0.21462 -0.86818,1.16276 -2.39738,3.47798c-0.33641,0.50933 -0.8441,1.2237 -1.12821,1.5875c-0.28411,0.36381 -0.96811,1.34607 -1.52,2.18282c-0.55188,0.83674 -1.23484,1.81901 -1.51767,2.18281c-0.28284,0.3638 -0.68541,0.95789 -0.89459,1.32021c-0.20919,0.36231 -0.48942,0.76782 -0.62272,0.90113c-0.34313,0.34313 -1.28439,1.82227 -1.28439,2.01835c0,0.09008 -0.0851,0.19645 -0.18922,0.23638c-0.17213,0.06605 -1.53058,1.96042 -1.53058,2.13441c0,0.04069 -0.26698,0.40177 -0.59329,0.8024c-0.32632,0.40062 -0.69083,0.917 -0.81002,1.1475c-0.1192,0.23049 -0.56,0.86925 -0.97956,1.41946c-0.7023,0.92097 -3.46257,4.92213 -5.02514,7.28422c-0.361,0.5457 -0.75535,1.09452 -0.87634,1.2196c-0.12098,0.12508 -0.28592,0.33998 -0.36651,0.47756c-0.21342,0.36434 -0.87528,1.3593 -1.15907,1.74242c-0.55312,0.74673 -1.56715,2.24206 -1.56715,2.311c0,0.04069 -0.26781,0.4028 -0.59514,0.80467c-0.32733,0.40187 -0.71001,0.95583 -0.8504,1.23102c-0.1404,0.27519 -0.47144,0.75909 -0.73565,1.07534c-0.26422,0.31624 -0.95567,1.29437 -1.53655,2.17362c-0.58089,0.87924 -1.23066,1.80698 -1.44395,2.06165c-0.21329,0.25466 -0.6092,0.84138 -0.87981,1.30382c-0.27061,0.46244 -0.56979,0.87065 -0.66484,0.90712c-0.0951,0.03648 -0.17283,0.13568 -0.17283,0.22046c0,0.08478 -0.16992,0.36119 -0.3776,0.61424c-0.20769,0.25305 -0.48385,0.66844 -0.6137,0.92311c-0.12984,0.25466 -0.38197,0.61041 -0.56028,0.79056c-0.17831,0.18015 -0.57187,0.74527 -0.87459,1.25582c-0.30271,0.51055 -0.6584,1.03671 -0.79042,1.16926c-0.13202,0.13254 -0.56496,0.72828 -0.96209,1.32387c-1.34848,2.02235 -2.1606,3.19848 -2.49113,3.60773c-0.18132,0.22449 -0.83849,1.17699 -1.46039,2.11666c-0.62191,0.93967 -1.36751,2.01133 -1.6569,2.38147c-0.2894,0.37014 -0.68362,0.95467 -0.87605,1.29897c-0.19243,0.3443 -0.46156,0.69574 -0.59805,0.78098c-0.13649,0.08524 -0.24817,0.20708 -0.24817,0.27074c0,0.14634 -1.0656,1.75509 -1.85278,2.79716c-0.32978,0.43657 -0.69988,1.00526 -0.82245,1.26376c-0.12256,0.2585 -0.34229,0.5781 -0.48828,0.71022c-0.33515,0.30331 -1.33441,1.82875 -1.33441,2.03707c0,0.08588 -0.0539,0.15614 -0.11988,0.15614c-0.13552,0 -0.94993,1.09846 -1.3035,1.75815c-0.12842,0.2396 -0.45004,0.70106 -0.71472,1.02546c-0.26468,0.32441 -0.93369,1.27444 -1.48668,2.11118c-0.55299,0.83675 -1.24232,1.8242 -1.53186,2.19434c-0.28953,0.37013 -0.6885,0.96545 -0.88659,1.32291c-0.19809,0.35747 -0.45232,0.71956 -0.56496,0.80464c-0.11265,0.08508 -0.20485,0.20415 -0.20491,0.26459c-0.00012,0.14016 -0.87611,1.23436 -0.98819,1.23436c-0.0463,0 -0.76555,-0.69952 -1.59843,-1.55448l-0.00001,0z"
                    fill="#999999" id="svg_33" stroke-width="0.132292" />
                <path
                    d="m94.35327,86.51359c-2.463,-2.53532 -4.87635,-5.57791 -6.53753,-8.24208c-1.10241,-1.76802 -2.43926,-4.12972 -2.59699,-4.5879c-0.04383,-0.12733 -0.13229,-0.23151 -0.19656,-0.23151c-0.06427,0 -0.11687,-0.08641 -0.11687,-0.19203c0,-0.16076 -0.61121,-1.68162 -1.0659,-2.65224c-0.46145,-0.98503 -1.28643,-3.42922 -1.21957,-3.61319c0.04463,-0.1228 0.25157,-0.42095 0.45987,-0.66255c0.20829,-0.24161 0.6627,-0.86669 1.0098,-1.38906c0.3471,-0.52238 1.28806,-1.87252 2.09102,-3.0003c0.80297,-1.12779 1.75789,-2.49701 2.12205,-3.04271c0.76909,-1.1525 1.39642,-2.05647 2.45664,-3.53998c0.41837,-0.5854 0.76067,-1.12243 0.76067,-1.19339c0,-0.07096 0.08579,-0.20022 0.19065,-0.28725c0.10485,-0.08702 0.55057,-0.67474 0.99048,-1.30604c0.4399,-0.6313 1.09878,-1.56454 1.46418,-2.07386c0.36539,-0.50933 0.91614,-1.34276 1.22389,-1.85209c0.30774,-0.50932 0.84513,-1.28291 1.19421,-1.71909c0.34908,-0.43618 1.07702,-1.44821 1.61765,-2.24896c0.54064,-0.80075 1.34044,-1.96192 1.77736,-2.58038c0.43692,-0.61847 1.08627,-1.54987 1.443,-2.0698c0.35673,-0.51992 1.21302,-1.74031 1.90285,-2.71198c0.68984,-0.97166 1.6196,-2.33221 2.06613,-3.02343c0.44654,-0.69123 1.11927,-1.6572 1.49497,-2.14661c0.37569,-0.48941 1.13987,-1.56097 1.69816,-2.38125c0.5583,-0.82028 1.28902,-1.87837 1.62383,-2.35131c0.5542,-0.78285 1.27206,-1.81919 3.06986,-4.43177c0.35048,-0.50932 0.79806,-1.1344 0.99463,-1.38906c0.19658,-0.25466 0.88536,-1.23693 1.53063,-2.18281c1.19921,-1.75787 1.40368,-2.05345 3.2487,-4.69636c0.58413,-0.83674 1.26622,-1.81901 1.51574,-2.18281c1.41243,-2.05931 1.97113,-2.86496 2.52289,-3.63802c0.33756,-0.47294 1.26783,-1.78263 2.06728,-2.91042l1.45354,-2.05052l-1.10809,-0.07201c-0.60944,-0.0396 -9.89568,-0.08478 -20.63608,-0.10039l-19.52797,-0.02837l-1.52735,0.52665c-2.9701,1.02413 -4.23172,1.76132 -5.75029,3.35998c-2.022,2.12864 -3.08768,4.79792 -4.68154,11.72612c-0.30966,1.34607 -0.61117,2.50395 -0.67002,2.57307c-0.05885,0.06912 -0.11025,-0.34759 -0.11422,-0.92604c-0.004,-0.57844 -0.05455,-5.07008 -0.11239,-9.9814c-0.05783,-4.91133 -0.07907,-9.14237 -0.04718,-9.40232l0.05797,-0.47263l32.5493,0.05805c18.3308,0.0327 32.51836,0.00799 32.47845,-0.05653c-0.0395,-0.06388 2.30944,-0.11459 5.30743,-0.11459c2.95807,0 7.20362,-0.02977 9.43456,-0.06615c2.23095,-0.03638 4.09572,-0.02699 4.14395,0.02085c0.0768,0.07622 -1.37045,2.37683 -2.06745,3.28643c-0.13939,0.1819 -0.58288,0.82186 -0.98554,1.42214c-0.40266,0.60027 -0.78789,1.0914 -0.85607,1.0914c-0.0682,0 -0.12396,0.05896 -0.12396,0.13101c0,0.14694 -1.00889,1.70617 -1.49881,2.31639c-0.17525,0.21828 -0.56384,0.78382 -0.86353,1.25677c-0.29969,0.47294 -0.66621,1.00872 -0.81447,1.19062c-0.29504,0.36197 -1.57698,2.21541 -2.47051,3.57188c-0.31153,0.47294 -0.79056,1.14882 -1.0645,1.50196c-0.45097,0.58135 -1.83236,2.59154 -3.60426,5.24491c-0.36441,0.54571 -0.82663,1.19301 -1.02715,1.43845c-0.42098,0.51531 -1.22447,1.7484 -1.22447,1.87916c0,0.04879 -0.19348,0.30025 -0.42995,0.55878c-0.23647,0.25854 -0.63752,0.81668 -0.89123,1.24033c-0.2537,0.42364 -0.71416,1.084 -1.02324,1.46747c-0.30909,0.38346 -0.65655,0.88011 -0.77216,1.10366c-0.1156,0.22354 -0.66027,1.01113 -1.21039,1.75018c-0.55012,0.73906 -1.68167,2.35577 -2.51455,3.5927c-2.59552,3.85462 -2.94453,4.35782 -3.21469,4.63486c-0.1444,0.14808 -0.26254,0.30541 -0.26254,0.34961c0,0.04421 -0.32756,0.54813 -0.72791,1.11983c-0.40035,0.5717 -1.02346,1.48594 -1.3847,2.03164c-0.36123,0.5457 -0.882,1.27821 -1.15725,1.6278c-0.27525,0.34959 -0.70882,0.98102 -0.96348,1.40318c-0.25466,0.42215 -0.83925,1.26722 -1.29909,1.87792c-0.45983,0.6107 -1.1133,1.55685 -1.45214,2.10256c-0.33884,0.5457 -0.77877,1.16907 -0.97763,1.38526c-0.19886,0.2162 -0.58384,0.77315 -0.8555,1.23768c-0.27167,0.46453 -0.57172,0.87445 -0.66677,0.91092c-0.0951,0.03648 -0.17283,0.1189 -0.17283,0.18317c0,0.14793 -1.02516,1.69732 -1.69834,2.56682c-0.28166,0.3638 -0.68226,0.95911 -0.89022,1.32292c-0.20795,0.3638 -0.45269,0.72099 -0.54386,0.79375c-0.15866,0.12663 -0.84642,1.11585 -2.57535,3.70416c-0.43742,0.65485 -0.9054,1.30969 -1.03995,1.45521c-0.13455,0.14552 -0.75426,1.03849 -1.37711,1.98438c-0.62286,0.94588 -1.37728,2.04721 -1.67648,2.44739c-0.2992,0.40018 -0.7315,1.00698 -0.96067,1.34843c-0.40588,0.60476 -1.6373,2.39447 -2.76727,4.02188c-0.3079,0.44343 -0.66353,0.97921 -0.79032,1.19062c-0.12678,0.21141 -0.46626,0.67933 -0.75441,1.03983c-0.28815,0.36049 -0.6309,0.8665 -0.76168,1.12448c-0.13078,0.25797 -0.30187,0.52856 -0.3802,0.60132c-0.26902,0.24987 -0.94886,1.19103 -1.19847,1.65914c-0.13741,0.25768 -0.46484,0.73393 -0.72763,1.05833c-0.26279,0.32441 -0.93059,1.27444 -1.484,2.11118c-0.55341,0.83675 -1.14842,1.69995 -1.32227,1.91823c-0.17384,0.21828 -0.56015,0.78383 -0.85847,1.25677c-0.2983,0.47294 -0.63352,0.95419 -0.74491,1.06943c-0.11139,0.11525 -0.20253,0.25274 -0.20253,0.30554c0,0.12651 -0.95824,1.27086 -1.06418,1.27086c-0.0452,0 -0.79157,-0.7303 -1.6587,-1.62289l0,0.00002z"
                    fill="#999999" id="svg_32" stroke-width="0.132292" />
                <path
                    d="m94.35327,86.51359c-2.49884,-2.57223 -4.75473,-5.4111 -6.47139,-8.1438c-1.1688,-1.86059 -2.30143,-3.83485 -2.61256,-4.55389c-0.08658,-0.20009 -0.2039,-0.3638 -0.26071,-0.3638c-0.05681,0 -0.10329,-0.07881 -0.10329,-0.17514c0,-0.14859 -0.65903,-1.79852 -1.06613,-2.66913c-0.46784,-1.00052 -1.28608,-3.42871 -1.21755,-3.61319c0.04561,-0.1228 0.30393,-0.49116 0.57405,-0.81858c0.27012,-0.32742 0.70218,-0.92274 0.96015,-1.32292c0.25796,-0.40018 0.91521,-1.35268 1.46056,-2.11666c0.54535,-0.76399 1.54349,-2.19274 2.21809,-3.175c0.6746,-0.98227 1.45423,-2.11336 1.73252,-2.51355c0.27829,-0.40018 0.83187,-1.20385 1.23019,-1.78593c0.39831,-0.58209 0.98094,-1.41552 1.29473,-1.85209c1.58554,-2.20591 2.23992,-3.15079 2.97758,-4.29948c0.4439,-0.69122 1.04144,-1.55442 1.3279,-1.91822c0.28645,-0.36381 1.05141,-1.43537 1.69993,-2.38125c0.64852,-0.94589 1.44883,-2.10675 1.77848,-2.57969c0.32965,-0.47294 1.01432,-1.45521 1.52148,-2.18281c0.50716,-0.72761 1.30334,-1.8587 1.76928,-2.51355c0.46595,-0.65484 1.34102,-1.93476 1.94461,-2.84427c0.60358,-0.9095 1.39275,-2.0406 1.7537,-2.51354c0.36096,-0.47294 1.14399,-1.57427 1.74007,-2.44739c1.10042,-1.61187 1.64242,-2.39368 3.30167,-4.7625c0.50966,-0.72761 1.07981,-1.55699 1.267,-1.84308c0.18721,-0.28609 0.65007,-0.94093 1.0286,-1.45521c0.37852,-0.51427 1.13521,-1.58989 1.68152,-2.39026c0.54631,-0.80036 1.32733,-1.93145 1.73559,-2.51354c0.40826,-0.58208 1.07033,-1.53458 1.47127,-2.11666c0.40094,-0.58209 1.06379,-1.53459 1.47301,-2.11667c0.40921,-0.58208 1.0687,-1.53458 1.46552,-2.11667c0.39681,-0.58208 0.97481,-1.41552 1.28443,-1.85208c0.30963,-0.43656 1.1743,-1.65695 1.9215,-2.71198l1.35854,-1.91823l-3.48087,-0.06614c-1.91449,-0.03638 -11.19018,-0.08371 -20.61265,-0.10518l-17.13175,-0.03904l-1.32291,0.45042c-3.06805,1.04459 -4.47098,1.85227 -5.98389,3.44496c-1.94886,2.05165 -2.81376,4.13074 -4.35557,10.47019c-1.003,4.12403 -0.95884,3.95934 -1.03994,3.87824c-0.08404,-0.08404 -0.30876,-19.75969 -0.23253,-20.35973l0.06024,-0.4742l32.16801,0.01119c17.69241,0.00614 35.7399,-0.04698 40.10552,-0.11806c9.34541,-0.15215 11.52737,-0.16145 11.63922,-0.0496c0.1231,0.1231 -3.62871,5.68871 -3.89452,5.77731c-0.0759,0.02529 -0.14186,0.11543 -0.14668,0.20031c-0.005,0.08489 -0.361,0.66036 -0.79153,1.27882c-0.43052,0.61847 -1.07902,1.57097 -1.4411,2.11667c-0.36208,0.5457 -0.88801,1.28984 -1.16874,1.65364c-0.49626,0.64312 -1.60281,2.24749 -2.543,3.68708c-0.25466,0.38993 -0.71275,1.03745 -1.01798,1.43893c-0.30523,0.40149 -1.00822,1.40668 -1.5622,2.23375c-1.42103,2.1216 -2.40886,3.55811 -2.74966,3.99858c-0.43457,0.56169 -1.28474,1.85247 -1.28474,1.95058c0,0.04699 -0.19348,0.29696 -0.42995,0.55549c-0.23647,0.25854 -0.63648,0.81669 -0.8889,1.24033c-0.25243,0.42365 -0.67481,1.03815 -0.93863,1.36558c-0.26383,0.32742 -0.6217,0.83343 -0.79527,1.12448c-0.17358,0.29104 -0.81537,1.21377 -1.42621,2.05052c-0.61084,0.83674 -1.73139,2.44408 -2.49011,3.57187c-2.31879,3.44673 -2.81262,4.15659 -3.08634,4.43643c-0.14484,0.14808 -0.26334,0.3054 -0.26334,0.3496c0,0.04421 -0.32484,0.54813 -0.72185,1.11983c-0.39702,0.5717 -1.02122,1.48594 -1.3871,2.03164c-0.36589,0.54571 -0.85961,1.24491 -1.09716,1.55378c-0.23755,0.30887 -0.64148,0.90724 -0.89762,1.32971c-0.25614,0.42247 -0.68094,1.03296 -0.944,1.35664c-0.26306,0.32369 -0.93192,1.27313 -1.48635,2.10987c-0.55443,0.83675 -1.129,1.67018 -1.27683,1.85209c-0.14782,0.1819 -0.48978,0.68209 -0.75992,1.11154c-0.27013,0.42945 -0.6251,0.92329 -0.78881,1.09742c-0.16371,0.17413 -0.29766,0.34308 -0.29766,0.37545c0,0.09042 -1.13971,1.79696 -1.49881,2.24423c-0.17525,0.21828 -0.56383,0.78383 -0.86353,1.25677c-0.29969,0.47294 -0.66621,1.00873 -0.81447,1.19063c-0.26668,0.32718 -1.23497,1.71981 -2.62148,3.77031c-0.39359,0.58208 -0.87853,1.26669 -1.07763,1.52135c-0.1991,0.25466 -0.79517,1.11787 -1.3246,1.91823c-0.52943,0.80037 -1.07551,1.60404 -1.21351,1.78594c-0.138,0.1819 -0.58119,0.80698 -0.98487,1.38906c-0.40368,0.58208 -1.14835,1.65365 -1.65483,2.38125c-0.50648,0.72761 -1.21546,1.7694 -1.5755,2.31511c-0.36004,0.5457 -0.92724,1.34937 -1.26044,1.78593c-0.3332,0.43657 -0.73585,1.02881 -0.89479,1.31609c-0.15893,0.28729 -0.38624,0.62268 -0.50512,0.74532c-0.26702,0.27545 -1.30521,1.79542 -1.30521,1.91089c0,0.04632 -0.21502,0.34663 -0.47783,0.66735c-0.44814,0.54689 -2.12779,2.96662 -3.62073,5.21608c-0.36218,0.54571 -0.74902,1.08648 -0.85964,1.20173c-0.11064,0.11524 -0.20115,0.25273 -0.20115,0.30553c0,0.12652 -0.95824,1.27087 -1.06418,1.27087c-0.0452,0 -0.79157,-0.7303 -1.6587,-1.62289l0,-0.00001z"
                    fill="#999999" id="svg_31" stroke-width="0.132292" />
                <path
                    d="m94.35327,86.51359c-3.08868,-3.17938 -6.22647,-7.35913 -7.99696,-10.65249c-0.18422,-0.34268 -0.54141,-1.01001 -0.79375,-1.48296c-0.25234,-0.47294 -0.48866,-0.88966 -0.52516,-0.92604c-0.09005,-0.08976 -0.94505,-2.18568 -1.79763,-4.40661c-0.38573,-1.00481 -0.66606,-1.92754 -0.62297,-2.05052c0.04309,-0.12298 0.20955,-0.37243 0.36991,-0.55433c0.16036,-0.1819 0.61741,-0.80698 1.01568,-1.38906c0.39827,-0.58208 1.49669,-2.15966 2.44094,-3.50573c0.94425,-1.34607 1.9188,-2.74505 2.16567,-3.10885c0.24688,-0.36381 0.72005,-1.05404 1.0515,-1.53386c0.33145,-0.47982 0.96364,-1.40255 1.40488,-2.05052c0.44124,-0.64797 1.29967,-1.86273 1.90764,-2.69948c0.60796,-0.83674 1.51027,-2.14643 2.00514,-2.91041c0.49487,-0.76399 1.13195,-1.68672 1.41575,-2.05052c0.2838,-0.36381 1.06945,-1.46513 1.74591,-2.4474c0.67646,-0.98227 1.47865,-2.14312 1.78265,-2.57969c0.30399,-0.43656 0.967,-1.38906 1.47334,-2.11666c0.50634,-0.72761 1.51007,-2.15636 2.23052,-3.175c0.72044,-1.01865 1.61364,-2.33426 1.98488,-2.92357c0.37123,-0.58932 0.88702,-1.33346 1.14618,-1.65365c0.25917,-0.32019 1.06395,-1.44536 1.78841,-2.50039c0.72446,-1.05502 1.5683,-2.27541 1.87519,-2.71198c0.3069,-0.43656 1.25474,-1.79483 2.10631,-3.01837c0.85157,-1.22355 2.22083,-3.18808 3.04279,-4.36563c0.82196,-1.17755 1.71962,-2.46842 1.99479,-2.8686c0.27518,-0.40018 0.93737,-1.35268 1.47153,-2.11667c1.13471,-1.62289 2.19938,-3.1552 3.03953,-4.37458c0.92957,-1.34919 1.85937,-2.67763 3.23445,-4.62125l1.26354,-1.78594l-5.71999,-0.06775c-3.146,-0.03727 -12.41727,-0.08328 -20.60281,-0.10225l-14.88279,-0.03449l-1.12448,0.3813c-2.84646,0.96519 -4.2456,1.69933 -5.59417,2.93528c-2.27938,2.08904 -3.33836,4.45392 -4.93813,11.02768c-0.48015,1.97302 -0.91123,3.67661 -0.95795,3.78575c-0.11926,0.27862 -0.22166,-3.6265 -0.26191,-9.98802c-0.01887,-2.98318 -0.0597,-6.46575 -0.09076,-7.73906c-0.03104,-1.27331 -0.02344,-2.46751 0.01688,-2.65378l0.07332,-0.33868l31.24327,0.00794c17.1838,0.00437 35.23188,-0.05059 40.10682,-0.12214c10.52202,-0.15444 12.45217,-0.16216 12.5639,-0.05024c0.0829,0.08305 -1.4299,2.41819 -2.98797,4.6121c-0.7833,1.10296 -1.80363,2.59101 -3.2202,4.69635c-0.39165,0.58209 -0.86552,1.24489 -1.05304,1.4729c-0.18751,0.22802 -0.95466,1.32934 -1.70478,2.4474c-0.75011,1.11805 -1.6964,2.48239 -2.10287,3.03185c-0.40647,0.54946 -1.13355,1.59126 -1.61573,2.31511c-1.17302,1.76093 -2.29137,3.39314 -2.47112,3.60657c-0.31214,0.37061 -1.44308,2.06141 -1.44308,2.15747c0,0.05576 -0.19943,0.31906 -0.44317,0.58511c-0.24374,0.26606 -0.64334,0.82004 -0.88801,1.23107c-0.24466,0.41102 -0.63188,0.98544 -0.86049,1.27648c-0.2286,0.29104 -0.65168,0.88635 -0.94016,1.32292c-0.28848,0.43656 -0.93482,1.35929 -1.43632,2.05052c-0.85732,1.18166 -2.8431,4.07675 -4.53702,6.61458c-0.41281,0.61847 -0.85474,1.20227 -0.98207,1.29735c-0.12733,0.09508 -0.23151,0.22089 -0.23151,0.2796c0,0.05871 -0.30154,0.54646 -0.67009,1.08391c-1.13732,1.65852 -2.35416,3.44231 -3.1032,4.54904c-0.39396,0.58208 -0.85966,1.23692 -1.03488,1.45521c-0.17523,0.21828 -0.86097,1.20054 -1.52387,2.18281c-0.6629,0.98226 -1.30229,1.905 -1.42087,2.05052c-0.11858,0.14552 -0.53687,0.74083 -0.92954,1.32291c-1.73987,2.57915 -2.16883,3.19927 -2.47073,3.57188c-0.17686,0.21828 -0.56676,0.78383 -0.86646,1.25677c-0.29969,0.47294 -0.66695,1.00872 -0.81612,1.19063c-0.14918,0.1819 -0.59496,0.80697 -0.99063,1.38906c-0.39567,0.58208 -1.13608,1.65364 -1.64535,2.38125c-0.50928,0.7276 -1.55698,2.24565 -2.32823,3.37344c-0.77126,1.12778 -1.781,2.5863 -2.24387,3.24114c-0.46287,0.65485 -1.14254,1.63711 -1.51038,2.18281c-0.36784,0.54571 -0.9318,1.34938 -1.25325,1.78594c-0.32145,0.43656 -0.72102,1.03188 -0.88793,1.32292c-0.16691,0.29104 -0.52172,0.79706 -0.78846,1.12448c-0.26674,0.32742 -0.65445,0.89297 -0.86157,1.25677c-0.20712,0.3638 -0.5336,0.83163 -0.7255,1.03962c-0.1919,0.20799 -0.54988,0.714 -0.79553,1.12448c-0.24564,0.41047 -0.72311,1.1035 -1.06106,1.54007c-0.33794,0.43656 -1.07185,1.47835 -1.63091,2.3151c-1.65042,2.47021 -2.44748,3.6246 -2.65653,3.84756c-0.10806,0.11524 -0.19648,0.25273 -0.19648,0.30553c0,0.12652 -0.95824,1.27087 -1.06418,1.27087c-0.0452,0 -0.79157,-0.7303 -1.6587,-1.62289l0,0.00001z"
                    fill="#999999" id="svg_30" stroke-width="0.132292" />
                <path
                    d="m94.48786,86.6482c-1.68018,-1.7133 -2.59546,-2.76284 -4.1644,-4.77519c-1.218,-1.56223 -3.40115,-4.89637 -4.17125,-6.37039c-0.2661,-0.50932 -0.64027,-1.19393 -0.83148,-1.52135c-0.40186,-0.68809 -1.213,-2.61558 -2.16305,-5.13999l-0.66483,-1.76655l0.27267,-0.35012c0.14996,-0.19256 0.82671,-1.1425 1.50389,-2.11098c0.67717,-0.96847 1.5619,-2.21863 1.96607,-2.77812c0.40416,-0.5595 1.26388,-1.79117 1.91048,-2.73705c0.64659,-0.94589 1.40332,-2.04722 1.68161,-2.4474c0.27828,-0.40018 0.84982,-1.23362 1.27008,-1.85208c0.42026,-0.61847 1.3226,-1.89839 2.00521,-2.84427c0.68261,-0.94589 1.58595,-2.25558 2.00742,-2.91042c0.42148,-0.65485 0.99862,-1.48828 1.28256,-1.85208c0.28395,-0.36381 1.18848,-1.64373 2.01006,-2.84428c0.8216,-1.20054 1.83295,-2.65906 2.24748,-3.24114c1.57437,-2.21077 4.45779,-6.38729 5.0233,-7.27604c0.32408,-0.50933 0.80589,-1.19394 1.07069,-1.52136c0.2648,-0.32742 1.0751,-1.45851 1.80065,-2.51354c0.72555,-1.05502 1.56988,-2.27542 1.87628,-2.71198c0.57043,-0.81275 2.93213,-4.20674 5.17998,-7.44416c0.69361,-0.99894 1.55345,-2.23297 1.91077,-2.7423c1.12947,-1.60995 3.93244,-5.64899 4.63676,-6.68151c0.37254,-0.54614 1.33189,-1.91535 2.1319,-3.04271c0.80001,-1.12735 1.64685,-2.3325 1.88187,-2.67812l0.4273,-0.62838l-2.55297,-0.00132c-1.40413,-0.0008 -10.67899,-0.03728 -20.61078,-0.08113l-18.05779,-0.07973l-1.71979,0.62674c-2.69588,0.98244 -3.84904,1.6251 -5.20843,2.90266c-2.21477,2.08146 -3.3929,4.94522 -5.11845,12.44171c-0.26796,1.16416 -0.53246,2.16621 -0.58776,2.22676c-0.15319,0.16773 -0.45969,-19.66996 -0.31508,-20.393l0.07472,-0.3736l31.04362,0.0095c17.07401,0.00524 35.12154,-0.05003 40.10562,-0.12279c10.59327,-0.15464 12.64819,-0.16238 12.76234,-0.04804c0.0821,0.08222 -1.38893,2.3585 -2.98052,4.61211c-0.43678,0.61846 -1.18172,1.69002 -1.65543,2.38124c-0.4737,0.69123 -1.26065,1.83459 -1.74878,2.54081c-0.48812,0.70622 -1.55407,2.25403 -2.36878,3.43958c-0.8147,1.18555 -1.75706,2.52375 -2.09413,2.97378c-0.33708,0.45002 -1.08878,1.52158 -1.67045,2.38125c-1.98976,2.9407 -2.77288,4.07699 -3.35659,4.87031c-0.32121,0.43656 -0.62017,0.89985 -0.66434,1.02953c-0.0442,0.12967 -0.22766,0.39476 -0.40776,0.5891c-0.1801,0.19433 -0.55981,0.7133 -0.8438,1.15329c-0.28399,0.43997 -0.64654,0.96848 -0.80567,1.17445c-0.15914,0.20597 -0.55167,0.76571 -0.87231,1.24387c-0.32064,0.47815 -1.07749,1.55979 -1.6819,2.40363c-1.11824,1.56124 -3.16703,4.54247 -4.60005,6.69363c-0.43623,0.65484 -0.87727,1.23823 -0.98009,1.29642c-0.10282,0.05818 -0.18694,0.15424 -0.18694,0.21346c0,0.05922 -0.30154,0.54739 -0.67009,1.08483c-0.36855,0.53744 -1.05483,1.54271 -1.52508,2.23394c-0.47025,0.69122 -1.17936,1.73302 -1.5758,2.3151c-0.39644,0.58208 -0.85613,1.22959 -1.02153,1.4389c-0.26503,0.33539 -1.4965,2.10652 -3.8746,5.57256c-0.39938,0.58208 -1.14262,1.65365 -1.65165,2.38125c-0.50903,0.7276 -1.22058,1.7694 -1.58123,2.3151c-0.36066,0.54571 -0.77864,1.14102 -0.92887,1.32292c-0.15022,0.1819 -0.7184,0.98557 -1.26262,1.78594c-0.54422,0.80036 -1.28441,1.87192 -1.64488,2.38125c-0.36046,0.50932 -1.28859,1.84877 -2.06252,2.97656c-0.77392,1.12779 -1.76198,2.55654 -2.19568,3.175c-0.76082,1.08492 -1.71404,2.47017 -3.23167,4.69635c-0.39682,0.58209 -0.98339,1.41552 -1.30349,1.85209c-0.32011,0.43656 -0.71976,1.03187 -0.88812,1.32291c-0.16836,0.29104 -0.41613,0.64823 -0.5506,0.79375c-0.13447,0.14552 -0.47742,0.62177 -0.76211,1.05834c-0.2847,0.43656 -0.79114,1.16195 -1.12544,1.61197c-0.56233,0.757 -1.59246,2.26086 -3.47203,5.06876c-0.41399,0.61846 -0.82712,1.17208 -0.91807,1.23027c-0.0909,0.05818 -0.16536,0.16723 -0.16536,0.24232c0,0.15869 -0.91653,1.30553 -1.04335,1.30553c-0.047,0 -0.74221,-0.66973 -1.54495,-1.48828l0.00001,-0.00007z"
                    fill="#999999" id="svg_29" stroke-width="0.132292" />
                <path
                    d="m94.3574,86.51383c-0.8694,-0.89245 -1.88175,-1.9789 -2.24967,-2.41432c-2.26498,-2.68057 -4.62648,-6.11294 -6.14227,-8.92762c-0.41143,-0.76398 -0.81605,-1.50812 -0.89917,-1.65364c-0.23938,-0.41909 -1.52615,-3.57076 -2.07243,-5.07595l-0.49786,-1.37179l0.27179,-0.34801c0.14949,-0.1914 0.79136,-1.09214 1.4264,-2.00165c0.63503,-0.9095 1.5796,-2.24896 2.09903,-2.97656c0.51944,-0.72761 1.59384,-2.27542 2.38756,-3.43958c1.55209,-2.2765 1.87838,-2.74413 4.46642,-6.40119c0.93139,-1.31611 1.94342,-2.79677 2.24896,-3.29035c0.30554,-0.49358 0.82947,-1.25334 1.1643,-1.68836c0.33484,-0.43502 1.41075,-1.9518 2.39093,-3.37063c0.98017,-1.41882 2.42914,-3.50242 3.21993,-4.6302c0.79079,-1.12779 2.06041,-2.97326 2.82137,-4.10105c0.76097,-1.12778 1.63316,-2.37794 1.93819,-2.77812c0.30504,-0.40018 1.35805,-1.88846 2.34003,-3.30729c0.98197,-1.41883 2.40813,-3.47266 3.16923,-4.56406c2.92038,-4.18777 4.72443,-6.77911 5.29572,-7.60678c0.32644,-0.47294 1.29907,-1.87192 2.1614,-3.10885c0.86232,-1.23693 1.87512,-2.69544 2.25067,-3.24115c0.37554,-0.5457 1.52151,-2.18208 2.54661,-3.6364c1.0251,-1.45432 1.85316,-2.65303 1.84015,-2.66381c-0.013,-0.01077 -9.28078,-0.06097 -20.59502,-0.11153l-20.57133,-0.09193l-1.71979,0.62044c-3.06506,1.10577 -4.71082,2.15758 -6.14265,3.92579c-1.47998,1.82768 -2.31295,3.96925 -3.70704,9.53081c-0.56079,2.23721 -1.05248,4.10051 -1.09265,4.14068c-0.04017,0.04017 -0.10947,-1.96887 -0.15401,-4.46452c-0.11783,-6.60285 -0.16062,-16.20921 -0.07261,-16.29825c0.04171,-0.0422 5.51859,-0.06633 12.17084,-0.05362c21.71618,0.04147 50.67719,-0.01823 59.32309,-0.1223c10.2956,-0.12393 12.32276,-0.12675 12.43199,-0.01731c0.0812,0.08136 -1.16755,2.01586 -2.97313,4.60578c-1.32214,1.89647 -2.44477,3.52072 -3.38728,4.90076c-1.75875,2.57524 -3.8983,5.6475 -4.46827,6.41615c-0.32372,0.43656 -1.07495,1.50812 -1.66942,2.38125c-2.22049,3.26135 -2.81361,4.12436 -3.44906,5.0185c-0.3586,0.5046 -0.65201,0.99573 -0.65201,1.0914c0,0.09567 -0.0563,0.17395 -0.12513,0.17395c-0.0688,0 -0.5204,0.58043 -1.00351,1.28985c-1.38569,2.03479 -2.55461,3.71524 -3.71566,5.34165c-1.10562,1.54876 -2.90911,4.17352 -4.30606,6.26694c-0.43698,0.65484 -0.87863,1.23823 -0.98145,1.29642c-0.10282,0.05818 -0.18694,0.15606 -0.18694,0.21749c0,0.10476 -0.38339,0.68279 -2.2863,3.44703c-0.42575,0.61846 -1.11451,1.63049 -1.53058,2.24896c-0.41606,0.61846 -1.0903,1.57404 -1.49831,2.1235c-0.40801,0.54946 -1.14103,1.59126 -1.62894,2.3151c-0.4879,0.72385 -1.24066,1.8221 -1.67279,2.44056c-0.43214,0.61847 -1.17289,1.69003 -1.64611,2.38125c-1.78754,2.61102 -4.74499,6.86768 -5.80113,8.3496c-0.17553,0.24629 -0.95441,1.37053 -1.73085,2.49832c-0.77644,1.12779 -1.7664,2.55653 -2.19991,3.175c-0.4335,0.61846 -1.17461,1.69003 -1.64689,2.38125c-0.47229,0.69122 -1.25808,1.83506 -1.74621,2.54187c-0.48813,0.7068 -1.19859,1.7486 -1.5788,2.3151c-0.38022,0.56651 -0.92469,1.32766 -1.20994,1.69147c-0.28526,0.3638 -0.65568,0.89958 -0.82317,1.19062c-0.16748,0.29104 -0.49568,0.76729 -0.72932,1.05833c-0.39538,0.49251 -1.827,2.57031 -3.60043,5.22552c-0.41307,0.61847 -0.82545,1.17209 -0.9164,1.23028c-0.0909,0.05819 -0.16536,0.16723 -0.16536,0.24232c0,0.16209 -0.91786,1.30553 -1.04797,1.30553c-0.0495,0 -0.80138,-0.73019 -1.67078,-1.62264l0,-0.00001z"
                    fill="#999999" id="svg_28" stroke-width="0.132292" />
                <path
                    d="m94.42005,86.58205c-1.71156,-1.74175 -2.4799,-2.62447 -4.0999,-4.71026c-1.79678,-2.3134 -4.82334,-7.21987 -5.5609,-9.015c-0.11958,-0.29104 -0.40742,-0.97565 -0.63964,-1.52135c-0.23222,-0.54571 -0.69179,-1.72845 -1.02126,-2.62831l-0.59904,-1.63612l0.40282,-0.54669c0.55946,-0.75927 5.20347,-7.38978 6.3593,-9.07951c1.39762,-2.04322 2.29158,-3.32303 3.51145,-5.02708c0.59899,-0.83675 1.54005,-2.20597 2.09125,-3.04271c0.55119,-0.83675 1.21799,-1.80261 1.4818,-2.14637c0.26381,-0.34375 1.37959,-1.92133 2.4795,-3.50573c1.09992,-1.58439 2.68505,-3.86298 3.52251,-5.06353c0.83746,-1.20054 2.08639,-3.01625 2.77539,-4.03489c0.689,-1.01865 1.501,-2.17951 1.80444,-2.57969c0.46085,-0.60779 2.61291,-3.68819 5.03705,-7.2099c0.30051,-0.43656 1.6068,-2.31179 2.90289,-4.16718c3.92939,-5.62506 5.56457,-7.97761 5.9309,-8.53282c0.19202,-0.29104 0.72721,-1.06494 1.18929,-1.71979c3.67244,-5.20443 4.45698,-6.3373 4.45698,-6.43588c0,-0.0619 -3.91418,-0.11348 -8.69818,-0.11462c-4.784,-0.00106 -14.02622,-0.03594 -20.53826,-0.07734l-11.8401,-0.07527l-1.52135,0.54567c-4.15532,1.49042 -6.18274,3.11796 -7.66672,6.15457c-0.87899,1.79864 -1.44789,3.5885 -2.48178,7.80808c-0.48136,1.96453 -0.91794,3.62143 -0.97019,3.682c-0.05225,0.06057 -0.13138,-1.8742 -0.17586,-4.29948c-0.1176,-6.41324 -0.16112,-16.34568 -0.07202,-16.43577c0.04217,-0.04263 16.20491,-0.09262 35.91717,-0.11109c19.71228,-0.01846 38.55902,-0.06334 41.88162,-0.09972c3.32261,-0.03638 6.07927,-0.02807 6.12592,0.01844c0.0808,0.08065 -1.1114,1.9299 -2.97275,4.6109c-1.80378,2.59808 -2.82173,4.07199 -3.51818,5.09408c-0.39663,0.58209 -1.13935,1.65365 -1.65049,2.38125c-0.51114,0.72761 -1.21108,1.73964 -1.55542,2.24896c-0.34434,0.50932 -0.89032,1.28323 -1.21329,1.71979c-0.53131,0.71818 -1.61839,2.29688 -3.51884,5.11018c-0.37493,0.55502 -0.9188,1.32893 -1.2086,1.71979c-0.28979,0.39086 -0.6395,0.91723 -0.77713,1.16972c-0.13763,0.25248 -0.36215,0.5799 -0.49894,0.7276c-0.13678,0.1477 -0.57076,0.74479 -0.96439,1.32688c-0.73302,1.08397 -1.39216,2.0333 -3.96079,5.70458c-1.38767,1.98335 -2.32904,3.35144 -3.99425,5.80479c-0.39509,0.58209 -0.75837,1.0881 -0.80728,1.12448c-0.0489,0.03638 -0.47088,0.63169 -0.93768,1.32292c-0.46681,0.69122 -1.23618,1.82232 -1.70971,2.51354c-0.47353,0.69122 -1.16376,1.70326 -1.53384,2.24896c-0.37009,0.5457 -1.00591,1.44175 -1.41294,1.99121c-0.40702,0.54946 -1.13522,1.59126 -1.61822,2.3151c-0.48299,0.72385 -1.23638,1.8221 -1.67421,2.44056c-0.43782,0.61847 -1.18259,1.69003 -1.65504,2.38125c-1.25271,1.83283 -2.40006,3.49115 -4.48607,6.48399c-1.01865,1.46146 -2.45835,3.53235 -3.19935,4.60197c-0.74099,1.06963 -1.69349,2.44249 -2.11667,3.0508c-1.64008,2.35763 -2.66399,3.84979 -4.86924,7.09606c-0.39543,0.58208 -0.86086,1.23692 -1.03431,1.4552c-0.17344,0.21829 -0.61003,0.84336 -0.97019,1.38907c-0.36016,0.5457 -0.98489,1.43867 -1.38828,1.98437c-0.40339,0.54571 -1.09078,1.52797 -1.52752,2.18281c-1.74893,2.62235 -2.23174,3.31184 -2.39,3.41309c-0.0909,0.05818 -0.16536,0.16723 -0.16536,0.24232c0,0.15862 -0.91651,1.30553 -1.04326,1.30553c-0.0469,0 -0.77272,-0.69949 -1.61284,-1.55443l0,0.00002z"
                    fill="#999999" id="svg_27" stroke-width="0.132292" />
                <path
                    d="m94.41834,86.58205c-3.30166,-3.35613 -6.48366,-7.67348 -8.64478,-11.72929c-0.34553,-0.64847 -0.68124,-1.27355 -0.746,-1.38907c-0.2124,-0.37882 -1.53735,-3.62044 -2.04762,-5.0097l-0.49956,-1.36009l0.31672,-0.42585c0.75534,-1.01559 6.1399,-8.72212 7.04663,-10.08531c0.41882,-0.62966 1.29804,-1.88327 3.01393,-4.2973c0.6982,-0.98227 1.69735,-2.43537 2.22035,-3.22912c0.523,-0.79374 1.11858,-1.65695 1.32351,-1.91823c0.20494,-0.26128 1.28305,-1.78474 2.39581,-3.38547c1.11275,-1.60073 3.01764,-4.33916 4.23307,-6.08541c1.21544,-1.74625 2.47143,-3.56793 2.79109,-4.04817c0.31966,-0.48025 1.15306,-1.67087 1.852,-2.64584c0.69895,-0.97496 1.6991,-2.39774 2.22258,-3.16172c1.0007,-1.46049 1.51779,-2.20279 4.37742,-6.28386c0.96869,-1.38244 2.23165,-3.19815 2.80658,-4.03489c0.57493,-0.83675 1.46407,-2.11667 1.97587,-2.84427c0.51181,-0.72761 1.17818,-1.68612 1.48084,-2.13003c0.97057,-1.42353 1.67914,-2.43826 3.7516,-5.37261c1.11581,-1.57983 2.06385,-2.96393 2.10677,-3.07578c0.0698,-0.18189 -1.05075,-0.20369 -10.61867,-0.20655c-5.88319,-0.00185 -15.11159,-0.03897 -20.50752,-0.08269l-9.81086,-0.07948l-1.56623,0.55892c-3.26058,1.16356 -5.1257,2.36336 -6.51188,4.18897c-1.4399,1.89638 -2.37321,4.39135 -3.73398,9.98186c-0.44997,1.84862 -0.86192,3.41071 -0.91544,3.47129c-0.05352,0.06058 -0.13389,-1.81465 -0.17859,-4.16719c-0.11513,-6.05923 -0.16207,-16.47633 -0.07465,-16.56488c0.04046,-0.04098 16.20319,-0.09219 35.91716,-0.11378c19.71399,-0.02159 38.56212,-0.06787 41.88472,-0.10282c3.32261,-0.03496 6.07947,-0.0253 6.12636,0.02148c0.0858,0.08556 -1.46253,2.48576 -3.18801,4.94204c-0.96705,1.37662 -2.30198,3.30646 -3.3859,4.89479c-1.34084,1.96483 -3.68472,5.32747 -4.24175,6.08542c-0.32084,0.43656 -1.11215,1.56765 -1.75847,2.51354c-0.64632,0.94588 -1.52273,2.22581 -1.94757,2.84427c-0.42485,0.61846 -1.06231,1.57096 -1.41658,2.11667c-0.35427,0.5457 -0.81163,1.19343 -1.01634,1.43939c-0.20472,0.24596 -0.64011,0.8481 -0.96753,1.3381c-0.62982,0.94252 -1.68114,2.45952 -4.04459,5.83611c-0.79503,1.13584 -2.10036,3.0335 -2.90072,4.21702c-0.80037,1.18352 -1.54451,2.25079 -1.65365,2.37173c-0.10914,0.12093 -0.56049,0.75335 -1.003,1.40538c-0.44252,0.65202 -1.21484,1.78081 -1.71628,2.50841c-0.50144,0.72761 -1.21384,1.7694 -1.58311,2.31511c-0.36927,0.5457 -1.00443,1.44175 -1.41146,1.99121c-0.40702,0.54946 -1.13476,1.59126 -1.61717,2.3151c-0.48242,0.72385 -1.23286,1.8221 -1.66765,2.44056c-0.73987,1.05244 -1.13828,1.62828 -3.40914,4.92739c-0.48812,0.70916 -1.72094,2.48313 -2.73958,3.94216c-1.01865,1.45903 -2.41763,3.47237 -3.10886,4.47408c-0.69122,1.00172 -1.85208,2.67969 -2.57969,3.72884c-1.71624,2.47468 -2.17831,3.14399 -3.05476,4.42493c-0.39828,0.58208 -1.12405,1.63369 -1.61282,2.3369c-0.48876,0.70322 -1.26767,1.83431 -1.73089,2.51354c-0.46323,0.67924 -1.00554,1.44333 -1.20515,1.69799c-0.33868,0.43211 -1.66396,2.35585 -3.32649,4.82865c-0.39135,0.58208 -0.78595,1.10594 -0.8769,1.16413c-0.0909,0.05818 -0.16536,0.16723 -0.16536,0.24232c0,0.15862 -0.91651,1.30553 -1.04326,1.30553c-0.0469,0 -0.77349,-0.69949 -1.61455,-1.55443z"
                    fill="#999999" id="svg_26" stroke-width="0.132292" />
                <path
                    d="m94.42005,86.58205c-2.6224,-2.66866 -4.75896,-5.36187 -6.69045,-8.4336c-2.2088,-3.51273 -3.20461,-5.53819 -4.67932,-9.51769l-0.56499,-1.52462l0.38319,-0.5367c0.21076,-0.29519 0.62143,-0.87653 0.91261,-1.29187c0.29117,-0.41533 1.42897,-2.03508 2.52844,-3.59943c1.09947,-1.56435 2.40905,-3.44353 2.91018,-4.17596c1.13792,-1.66316 2.21859,-3.21917 4.17439,-6.0105c0.84118,-1.20054 1.82029,-2.61396 2.1758,-3.14092c0.738,-1.09396 4.47672,-6.44689 5.05951,-7.24397c0.2128,-0.29104 1.55382,-2.22581 2.98005,-4.29948c1.42624,-2.07367 2.85795,-4.13437 3.18158,-4.57932c0.32363,-0.44496 1.30368,-1.84394 2.17789,-3.10886c0.87421,-1.26491 1.76098,-2.53797 1.9706,-2.82901c0.64578,-0.89662 6.44755,-9.22805 6.81718,-9.78958c0.19158,-0.29104 0.72555,-1.06495 1.18658,-1.71979c0.46104,-0.65485 1.16747,-1.66688 1.56985,-2.24896c0.40237,-0.58208 1.89867,-2.72498 3.32511,-4.762c2.10886,-3.01154 2.55149,-3.7188 2.36857,-3.78464c-0.12373,-0.04454 -9.37979,-0.11469 -20.56903,-0.15591l-20.34403,-0.07492l-1.60441,0.59003c-6.11411,2.24852 -7.6827,4.44864 -10.03445,14.07442c-0.45331,1.85539 -0.86868,3.42307 -0.92306,3.48373c-0.05438,0.06066 -0.13516,-1.57646 -0.17953,-3.63803c-0.10852,-5.04209 -0.08113,-17.08812 -0.08113,-17.08812c0,0 16.19981,-0.09179 35.91715,-0.12054c19.71738,-0.02875 38.56828,-0.07779 41.89088,-0.10898c3.32261,-0.03119 6.07947,-0.01844 6.12636,0.02834c0.0935,0.09328 -1.33713,2.2824 -3.96464,6.06652c-0.93465,1.34606 -2.04537,2.95341 -2.46827,3.57187c-1.54647,2.26159 -3.81302,5.51535 -4.51554,6.48229c-0.39647,0.54571 -1.3075,1.85539 -2.02451,2.91042c-0.71701,1.05503 -1.53212,2.24565 -1.81135,2.64583c-0.27924,0.40018 -0.79804,1.17409 -1.1529,1.71979c-0.35486,0.54571 -0.79659,1.17756 -0.98163,1.40412c-0.18504,0.22656 -0.65585,0.8814 -1.04625,1.45521c-0.69535,1.02201 -1.13523,1.65489 -3.94329,5.67349c-0.76264,1.0914 -2.03766,2.93687 -2.8334,4.10104c-0.79572,1.16416 -1.56625,2.28151 -1.71227,2.48299c-0.44841,0.6187 -2.80905,4.03388 -4.39579,6.35946c-0.38924,0.57048 -0.95701,1.37415 -1.26172,1.78594c-0.30471,0.41178 -1.0021,1.40773 -1.54975,2.21322c-0.54766,0.80549 -1.59105,2.32085 -2.31865,3.36746c-1.4977,2.15433 -1.63974,2.35985 -2.88491,4.17443c-0.49529,0.72178 -1.23943,1.79561 -1.65365,2.38628c-1.02359,1.45967 -3.02853,4.34491 -4.39113,6.31914c-1.00592,1.45745 -2.32567,3.36206 -4.08978,5.90222c-0.67533,0.97242 -2.06219,2.99032 -3.13678,4.56406c-0.39746,0.58209 -1.15162,1.66573 -1.67591,2.40811c-1.46752,2.07794 -3.30955,4.73785 -4.2256,6.10179c-0.45578,0.67862 -0.93286,1.33181 -1.06019,1.45154c-0.12733,0.11972 -0.23151,0.26884 -0.23151,0.33138c0,0.1425 -0.92736,1.28271 -1.04326,1.28271c-0.0469,0 -0.77272,-0.6995 -1.61283,-1.55443l-0.00001,0z"
                    fill="#4d4d4d" id="svg_25" stroke-width="0.132292" />
                <path
                    d="m424.27738,90.72649c0.012,-0.02127 4.6989,-6.75563 10.41541,-14.96525l10.39364,-14.92658l0.32721,-0.0061l0.3272,-0.0061l-0.0978,0.09507c-0.24558,0.23868 -0.58809,0.78154 -0.91671,1.45294c-0.11599,0.23699 -0.29375,0.59993 -0.39502,0.80654c-0.36838,0.75157 -1.07616,1.85425 -1.7304,2.69584c-0.2692,0.3463 -0.47894,0.59494 -0.80873,0.95877c-0.82674,0.91203 -1.45178,1.70277 -1.61712,2.04581c-0.0408,0.08473 -0.0743,0.1684 -0.0743,0.18592c0,0.31205 -4.01554,6.30664 -7.41008,11.06213c-1.54072,2.15842 -2.32457,3.19614 -2.75229,3.64373c-0.11734,0.12279 -0.27378,0.29783 -0.34763,0.38898c-0.36512,0.45061 -0.9031,1.27773 -1.27915,1.96664c-0.0829,0.15192 -0.22978,0.4204 -0.32633,0.59663c-0.36255,0.66169 -0.87783,1.44147 -1.49666,2.26495c-0.41029,0.54597 -0.62902,0.81102 -1.09983,1.33274c-0.19096,0.21161 -0.35514,0.39854 -0.36486,0.41541c-0.014,0.02426 -0.0961,0.03067 -0.393,0.03067c-0.35102,0 -0.37392,-0.0025 -0.35357,-0.03867l0.00002,-0.00007z"
                    fill="#4d4d4d" id="svg_24" stroke-width="0.022097" transform="scale(0.26458333)" />
                <path fill="#4d4d4d" id="svg_23" stroke-width="0.022097" transform="scale(0.26458333)" />
                <path
                    d="m425.36202,90.75033c0,-0.0082 0.0136,-0.03053 0.0301,-0.04972c0.0166,-0.01919 0.26207,-0.368 0.54559,-0.77514c0.28352,-0.40714 0.68917,-0.98884 0.90145,-1.29268c0.36345,-0.52021 3.68579,-5.28392 4.1687,-5.97726c0.12274,-0.17623 0.35142,-0.50437 0.50818,-0.7292c1.66334,-2.3857 1.83392,-2.63555 1.82718,-2.67616c-0.004,-0.02667 0.003,-0.0376 0.0221,-0.03066c0.0283,0.01051 0.45204,-0.59313 3.81576,-5.43538c0.70938,-1.02121 1.42458,-2.05064 1.58932,-2.28763c2.88879,-4.15569 4.25947,-6.14355 4.25271,-6.16757c-0.003,-0.01079 0.004,-0.01962 0.0147,-0.01962c0.0111,0 0.0742,-0.07706 0.14012,-0.17125c0.36909,-0.52738 1.39431,-2.0267 1.98315,-2.90024c0.37276,-0.55298 0.74106,-1.0974 0.81846,-1.20982l0.14073,-0.2044l12.69022,0l12.69021,0l0,14.97078l0,14.97078l-23.06936,0c-12.68814,0 -23.06936,-0.0067 -23.06936,-0.01483l0.00004,0z"
                    fill="#4d4d4d" id="svg_22" stroke-width="0.022097" transform="scale(0.26458333)" />
                <path
                    d="m427.41705,87.73248c0,-0.0082 0.0684,-0.12323 0.1521,-0.25569c0.22054,-0.34921 0.36572,-0.601 0.62683,-1.08712c0.58379,-1.08688 1.20837,-2.01628 1.707,-2.54008c0.3658,-0.38427 0.88217,-1.04577 1.79949,-2.30524c0.21056,-0.28909 0.38744,-0.521 0.39309,-0.51535c0.01,0.0097 -4.58432,6.61787 -4.64817,6.68597c-0.0167,0.0178 -0.0303,0.02568 -0.0303,0.0175l-0.00004,0.00001z"
                    fill="#4d4d4d" id="svg_21" stroke-width="0.022097" transform="scale(0.26458333)" />
                <path
                    d="m424.38872,90.74603l-0.10047,-0.01401l1.29126,-1.85616c1.78635,-2.56785 5.50943,-7.91601 11.38779,-16.35842c2.7443,-3.94131 4.98964,-7.17467 4.98964,-7.18523c0,-0.01056 0.009,-0.02252 0.0189,-0.02657c0.0104,-0.0041 0.70734,-0.99677 1.5487,-2.20603c0.84136,-1.20926 1.54133,-2.21028 1.55547,-2.22448c0.0163,-0.01641 0.13628,-0.02849 0.3289,-0.03315l0.30317,-0.0073l-0.10783,0.11048c-0.20555,0.21062 -0.48192,0.63699 -0.78061,1.20429c-0.08,0.15192 -0.14867,0.2961 -0.15264,0.32041c-0.004,0.02431 -0.0135,0.04917 -0.0211,0.05524c-0.008,0.0061 -0.11885,0.22094 -0.24712,0.47747c-0.35476,0.7095 -0.73163,1.34486 -1.18888,2.00436c-0.10798,0.15574 -0.19633,0.28749 -0.19633,0.29278c0,0.0053 0.009,0.0096 0.0207,0.0096c0.0288,0 0.99762,-1.40336 2.18913,-3.17093c0.36867,-0.5469 0.72036,-1.06646 0.78153,-1.15457l0.11123,-0.16021l12.69025,0l12.69025,0l0,14.97078l0,14.97078l-23.06936,0c-12.68814,0 -23.06936,-0.0042 -23.06936,-0.0093c0,-0.0051 0.20034,-0.29597 0.44519,-0.64634c0.47425,-0.67864 3.96674,-5.68444 4.6764,-6.7027c0.23293,-0.33422 0.42529,-0.61762 0.42747,-0.62977c0.002,-0.01215 0.0165,-0.03204 0.0317,-0.04419c0.0153,-0.01215 0.16604,-0.22097 0.33504,-0.46404c0.169,-0.24307 0.53609,-0.77008 0.81576,-1.17114c0.43879,-0.62926 0.9839,-1.41686 1.28042,-1.85004c0.0476,-0.06955 0.18853,-0.27055 0.31315,-0.44667c0.12463,-0.17612 0.73,-1.04397 1.34528,-1.92857c0.61528,-0.8846 1.19871,-1.72271 1.29651,-1.86247c0.45225,-0.64631 0.54896,-0.78558 4.42699,-6.37501c1.23664,-1.78238 2.24392,-3.24505 2.25549,-3.27519c0.0235,-0.06114 -0.0304,-0.02254 -0.0922,0.06606c-0.26019,0.3732 -0.66279,0.8648 -1.22523,1.49606c-0.87736,0.98473 -1.45585,1.73601 -1.56087,2.02708c-0.0753,0.20856 -0.16233,0.3798 -0.36091,0.70975c-1.33787,2.22294 -6.12758,9.20653 -8.59546,12.53254c-0.28973,0.39047 -0.38652,0.5431 -0.31726,0.5003c0.0134,-0.0083 0.13057,-0.15947 0.26028,-0.33591c0.45246,-0.61544 0.2517,-0.29274 -0.42273,0.67946c-1.69462,2.44287 -2.99834,4.30687 -3.00655,4.29866c-0.005,-0.0049 0.0547,-0.11855 0.13258,-0.25249c0.0778,-0.13394 0.25828,-0.45614 0.40096,-0.71601c0.60683,-1.1052 1.15311,-1.92004 1.65744,-2.47228c0.39919,-0.4371 0.96517,-1.14577 0.94332,-1.18113c-0.014,-0.0227 -0.0212,-0.01447 -0.42035,0.48508c-0.14567,0.1823 -0.38688,0.46569 -0.53602,0.62976c-0.54957,0.60458 -1.05009,1.35284 -1.72338,2.57636c-0.37145,0.67502 -0.53273,0.94303 -0.88968,1.47846c-0.40378,0.60566 -0.85842,1.22248 -1.29484,1.75672c-0.15385,0.18832 -0.84146,0.97606 -0.93834,1.07497c-0.0293,0.02987 -0.48536,0.05351 -0.63355,0.03284l0.00017,0.00002z"
                    fill="#4d4d4d" id="svg_20" stroke-width="0.022097" transform="scale(0.26458333)" />
                <path
                    d="m424.37693,90.74527l-0.0902,-0.01325l1.77553,-2.55221c0.97655,-1.40372 2.04217,-2.93505 2.36804,-3.40295c0.8426,-1.20985 2.0978,-3.01276 3.71525,-5.33645c0.76982,-1.10596 1.83251,-2.63232 2.36152,-3.3919c1.0266,-1.47404 2.6643,-3.82621 3.1078,-4.46362c0.14798,-0.21268 0.61524,-0.88388 1.03835,-1.49155c0.42311,-0.60767 1.29138,-1.8556 1.92949,-2.77318c0.63811,-0.91758 1.38606,-1.9915 1.66211,-2.38649c0.27606,-0.39498 1.02104,-1.46393 1.65552,-2.37544c0.63448,-0.9115 1.16526,-1.6689 1.1795,-1.6831c0.0164,-0.01637 0.1361,-0.0285 0.32702,-0.03315l0.30112,-0.0073l-0.11787,0.12729c-0.14717,0.15893 -0.27284,0.33454 -0.46236,0.64611c-0.16536,0.27185 -0.48442,0.89474 -0.45857,0.89527c0.009,0.00018 0.006,0.0076 -0.008,0.01657c-0.0134,0.0089 -0.14477,0.25488 -0.29189,0.54656c-0.31003,0.61467 -0.62381,1.14909 -1.03213,1.75784c-0.34844,0.51948 -0.32688,0.48502 -0.30338,0.48502c0.0226,0 0.0159,0.0094 0.70116,-0.98332c0.50149,-0.72647 0.79298,-1.15475 1.92122,-2.82291l0.45957,-0.67948l12.69232,0l12.69233,0l0,14.97077l0,14.97078l-23.06936,0c-12.68814,0 -23.06936,-0.0045 -23.06936,-0.0099c0,-0.0054 0.31127,-0.45539 0.6917,-0.99989c0.38043,-0.5445 1.41636,-2.02912 2.30208,-3.29915c0.88571,-1.27003 1.79089,-2.56768 2.01151,-2.88367c0.48779,-0.69864 0.52857,-0.76013 0.51388,-0.77482c-0.006,-0.0064 -0.16868,0.21508 -0.3607,0.49211c-0.58691,0.8467 -2.54898,3.66598 -2.77737,3.99077c-0.0884,0.12566 -0.0599,0.03702 0.0457,-0.14234c0.0599,-0.10168 0.25866,-0.45478 0.44175,-0.78468c0.69661,-1.25519 1.11219,-1.867 1.73894,-2.56007c0.33622,-0.3718 1.07144,-1.30354 1.07144,-1.35783c0,-0.04788 -0.0356,-0.01806 -0.11503,0.09641c-0.19538,0.28154 -0.69125,0.88878 -1.06616,1.30561c-0.54588,0.60694 -1.05246,1.36277 -1.68091,2.50802c-0.14338,0.2613 -0.34037,0.60933 -0.43774,0.7734c-0.52141,0.87858 -1.42123,2.12351 -2.06094,2.85137c-0.14461,0.16453 -0.35543,0.40422 -0.46849,0.53263l-0.20556,0.23347l-0.20111,0.01428c-0.21877,0.01553 -0.29068,0.01459 -0.42811,-0.0056l0.00039,-0.00003zm6.62867,-8.09033c0.0312,-0.04712 0.0493,-0.09022 0.0403,-0.09579c-0.009,-0.0056 -0.0484,0.03832 -0.0876,0.09753c-0.0392,0.05921 -0.0573,0.10231 -0.0403,0.09579c0.017,-0.0065 0.0564,-0.05042 0.0876,-0.09753zm0.62434,-0.89434c0.28816,-0.41322 0.79518,-1.14408 1.12672,-1.62414c0.33153,-0.48006 0.63139,-0.91261 0.66634,-0.96122c0.13969,-0.19431 1.05533,-1.50618 2.23633,-3.20408c1.30622,-1.87794 1.63878,-2.35657 3.44672,-4.96079c0.6117,-0.88112 1.27804,-1.84069 1.48074,-2.13237c0.20271,-0.29168 0.70487,-1.01757 1.11591,-1.61309c0.41105,-0.59552 0.82362,-1.19214 0.91683,-1.32582c0.29702,-0.42602 0.40218,-0.58883 0.3889,-0.60211c-0.007,-0.0071 -0.016,-0.0088 -0.0198,-0.0037c-0.55453,0.74589 -0.64537,0.85782 -1.25964,1.55205c-1.00687,1.13792 -1.51716,1.80675 -1.61818,2.12091c-0.09,0.2798 -0.53161,1.00455 -1.64539,2.70021c-0.46388,0.70623 -0.66525,1.00751 -1.45477,2.17657c-1.81915,2.69366 -4.36979,6.33181 -5.69326,8.12068c-0.28891,0.39049 -0.28233,0.38044 -0.25848,0.39518c0.0103,0.0063 0.0813,-0.07295 0.15775,-0.17622c0.0765,-0.10328 0.14379,-0.18305 0.14956,-0.17728c0.006,0.0058 -0.0535,0.10316 -0.13178,0.21642c-0.17456,0.25267 -0.18437,0.26925 -0.15299,0.25852c0.0135,-0.0046 0.26032,-0.34648 0.54847,-0.75969l0.00002,-0.00003z"
                    fill="#4d4d4d" id="svg_19" stroke-width="0.022097" transform="scale(0.26458333)" />
                <path
                    d="m273.46746,24.73906c-0.0611,-5.74732 -0.08,-17.77591 -0.031,-19.75782l0.0111,-0.44921l0.22363,0l0.22363,0l-0.00037,10.58593l-0.00037,10.58594l-0.20817,0l-0.20817,0l-0.0103,-0.96484l0.00002,0z"
                    fill="#4d4d4d" id="svg_18" stroke-width="0.015625" transform="scale(0.26458333)" />
                <path
                    d="m273.48749,25.66093c-0.008,-0.17209 -0.0353,-3.37881 -0.0488,-5.66797c-0.0115,-1.94214 -0.0125,-14.31612 -0.001,-14.82031c0.005,-0.23633 0.0127,-0.47715 0.0165,-0.53516l0.007,-0.10546l0.2096,0l0.2096,0l0.003,4.90234c0.002,2.69629 0.008,4.79336 0.0136,4.66016c0.006,-0.13321 0.0117,-2.33926 0.0128,-4.90235l0.002,-4.66015l15.91407,0l15.91406,0l0,8.21074l0,8.21074l-0.0622,0.03926c-0.0342,0.02159 -0.0668,0.03926 -0.0724,0.03926c-0.0195,0 -0.80368,0.42486 -0.82668,0.44786c-0.0127,0.01271 -0.0231,0.01876 -0.0231,0.01342c0,-0.0053 -0.0475,0.01649 -0.10546,0.04849c-2.26253,1.24818 -4.41523,2.67724 -6.11042,4.05638l-0.12994,0.10572l-12.24896,0l-12.24897,0l-0.002,-2.24609c-0.001,-1.23536 -0.007,-3.74375 -0.0125,-5.57422c-0.01,-3.27287 -0.0102,-3.23557 -0.0133,2.24609l-0.003,5.57422l-0.19531,0l-0.19531,0l-0.00288,-0.04297z"
                    fill="#4d4d4d" id="svg_17" stroke-width="0.015625" transform="scale(0.26458333)" />
                <path
                    d="m273.91125,25.57499c-0.00004,-3.02696 -0.0172,-9.21952 -0.0256,-9.22916c-0.003,-0.0036 -0.006,2.10052 -0.006,4.67578l0,4.68229l-0.19531,0l-0.19531,0l-0.002,-0.04297c-0.004,-0.08798 -0.0236,-2.0357 -0.0324,-3.16797c-0.0262,-3.38449 -0.0497,-12.74075 -0.0357,-14.23047l0.0115,-1.23047l0.22451,0l0.2245,0l0.00078,2.97266c0.0009,3.47991 -0.00007,3.27875 0.0157,3.26898c0.007,-0.0042 0.0121,-0.0656 0.0116,-0.13638c-0.00044,-0.07078 0.00007,-1.47342 0.001,-3.11697l0.002,-2.98829l15.91407,0l15.91406,0l0,6.96622l0,6.96622l-0.14453,0.07245c-0.20412,0.10231 -0.8136,0.43154 -0.82366,0.44491c-0.005,0.0061 -0.0154,0.01231 -0.024,0.01375c-0.0221,0.0037 -0.49763,0.26813 -0.92186,0.51263c-3.05619,1.76146 -5.63309,3.69001 -7.84481,5.87108l-0.32919,0.32462l-10.87003,0l-10.87004,0l-0.00003,-2.62891l0.00075,0zm-0.0209,-9.48437c-0.004,-0.01074 -0.008,-0.002 -0.008,0.01953c0,0.02148 0.004,0.03027 0.008,0.01953c0.004,-0.01074 0.004,-0.02832 0,-0.03906zm0.0107,-2.47333c-0.005,-0.01326 -0.0126,-0.02076 -0.0167,-0.01666c-0.004,0.0041 -0.003,0.01495 0.003,0.02411c0.0154,0.02493 0.0244,0.02009 0.0138,-0.0074l-0.0001,-0.00005zm0.0102,-0.24841c0,-0.0038 -0.007,-0.01124 -0.0156,-0.01655c-0.009,-0.0053 -0.0156,-0.0022 -0.0156,0.0069c0,0.0091 0.007,0.01655 0.0156,0.01655c0.009,0 0.0156,-0.0031 0.0156,-0.0069zm0,-0.05561c0,-0.0086 -0.007,-0.01563 -0.0156,-0.01563c-0.009,0 -0.0156,0.007 -0.0156,0.01563c0,0.0086 0.007,0.01563 0.0156,0.01563c0.009,0 0.0156,-0.007 0.0156,-0.01563z"
                    fill="#4d4d4d" id="svg_16" stroke-width="0.015625" transform="scale(0.26458333)" />
                <path
                    d="m273.90844,26.16093c-0.002,-1.12363 -0.003,-2.2873 -0.004,-2.58594c-0.00059,-0.29863 -0.006,-0.54297 -0.0128,-0.54296c-0.006,0 -0.0117,0.60117 -0.0117,1.33593l0,1.33594l-0.19531,0c-0.14495,0 -0.19574,-0.005 -0.19697,-0.01953c-0.008,-0.09248 -0.0384,-3.6575 -0.0488,-5.69141c-0.0102,-1.98741 -0.0235,-11.74309 -0.017,-12.39453l0.006,-0.5664l0.22618,0l0.22618,0l0.001,2.5039c0.00058,1.37715 0.00073,2.67544 0.00033,2.88508c-0.0004,0.20965 0.004,0.37694 0.009,0.37177c0.0169,-0.01691 0.0177,-0.12938 0.0194,-2.95997l0.002,-2.80078l15.91407,0l15.91406,0l0,6.96613l0,6.96612l-0.20703,0.1062c-0.32759,0.16805 -0.75341,0.40178 -0.75912,0.41669c-0.003,0.0075 -0.0144,0.01361 -0.0256,0.01361c-0.0412,0 -1.06825,0.58508 -1.75041,0.99719c-2.26125,1.36611 -4.16573,2.76735 -5.96875,4.39159c-0.29924,0.26957 -0.96366,0.89996 -1.20286,1.14124l-0.17231,0.1731l-10.87136,0l-10.87136,0l-0.00284,-2.04297zm-0.008,-3.86719c-0.005,-0.12246 -0.0116,-0.22558 -0.0148,-0.22916c-0.003,-0.0036 -0.006,0.09661 -0.006,0.22265c0,0.13349 0.006,0.22917 0.0148,0.22917c0.009,0 0.0112,-0.08684 0.006,-0.22266zm-0.002,-2.70442c-0.003,-1.2819 -0.008,-2.33366 -0.0117,-2.33724c-0.003,-0.0036 -0.006,1.05052 -0.006,2.34245c0,1.29192 0.005,2.34368 0.0117,2.33723c0.006,-0.0064 0.009,-1.06054 0.006,-2.34244zm-0.007,-2.42839c-0.004,-0.01504 -0.007,-0.0027 -0.007,0.02734c0,0.03008 0.003,0.04238 0.007,0.02734c0.004,-0.01504 0.004,-0.03965 0,-0.05469l0,0.00001zm0.00005,-0.14033c-0.004,-0.0152 -0.007,-0.0065 -0.008,0.01923c-0.00032,0.02578 0.003,0.03822 0.007,0.02764c0.004,-0.01058 0.005,-0.03167 0.00058,-0.04687l0.00042,0zm0.0204,-3.93481c0,-0.01238 -0.007,-0.02252 -0.0146,-0.02252c-0.008,0 -0.0136,0.01358 -0.0124,0.03017c0.003,0.03407 0.027,0.02714 0.027,-0.0077l0,0.00005zm0,-0.05377c0,-0.0086 -0.007,-0.01563 -0.0156,-0.01563c-0.009,0 -0.0156,0.007 -0.0156,0.01563c0,0.0086 0.007,0.01563 0.0156,0.01563c0.009,0 0.0156,-0.007 0.0156,-0.01563zm0,-0.04687c0,-0.0086 -0.007,-0.01563 -0.0165,-0.01563c-0.009,0 -0.0122,0.007 -0.007,0.01563c0.005,0.0086 0.0127,0.01563 0.0165,0.01563c0.004,0 0.007,-0.007 0.007,-0.01563zm-0.0109,-0.0522c0.004,-0.01152 0.002,-0.03086 -0.006,-0.04297c-0.0101,-0.01603 -0.014,-0.01032 -0.0142,0.02095c-0.00026,0.04666 0.007,0.05506 0.0201,0.02202l0.0001,0z"
                    fill="#4d4d4d" id="svg_15" stroke-width="0.015625" transform="scale(0.26458333)" />
                <path
                    d="m273.79455,54.44705c-0.00024,-0.48006 -0.0197,-2.23512 -0.0432,-3.90014c-0.0661,-4.68385 -0.26533,-23.04974 -0.26566,-24.49462l-0.00008,-0.3425l0.19888,0l0.19887,0l0.00028,3.74546c0.00041,5.35846 0.0788,22.22031 0.11253,24.19631l0.0285,1.66833l-0.11483,0l-0.11483,0l-0.00046,-0.87284z"
                    fill="#4d4d4d" id="svg_14" stroke-width="0.044194" transform="scale(0.26458333)" />
                <path
                    d="m274.64086,84.74575c-0.20421,-0.54566 -0.35907,-3.27948 -0.4915,-8.6767c-0.0954,-3.88814 -0.2342,-12.17165 -0.28694,-17.12524c-0.0133,-1.2518 -0.0352,-2.57928 -0.0487,-2.94996l-0.0245,-0.67396l0.10685,0l0.10684,0l0.0301,2.88367c0.0776,7.42201 0.18461,12.85526 0.33714,17.11419c0.16473,4.59958 0.34214,7.31991 0.48688,7.46559c0.10015,0.10081 0.33214,-0.67853 1.54482,-5.18959c0.14702,-0.5469 0.25795,-0.92476 0.24651,-0.83969c-0.045,0.33485 -1.69993,7.63689 -1.77699,7.84079c-0.0936,0.24765 -0.17456,0.30063 -0.2306,0.1509l0.00009,0z"
                    fill="#4d4d4d" id="svg_13" stroke-width="0.044194" transform="scale(0.26458333)" />
                <path
                    d="m273.4545,4.31562c0.0128,-0.31867 0.0352,-0.54753 0.0548,-0.55959c0.21467,-0.13268 11.86015,-0.08135 28.67807,0.12639c0.71329,0.00881 1.79258,0.02282 2.39844,0.03113c0.60586,0.00831 1.21231,0.01516 1.34766,0.01523l0.24609,0.00012l0,0.1773l0,0.17731l-2.32422,0.01059c-1.27832,0.00583 -3.87461,0.01759 -5.76953,0.02614c-1.89492,0.00855 -6.31055,0.02931 -9.8125,0.04611c-3.50195,0.0168 -7.99844,0.03795 -9.99219,0.047c-1.99375,0.00905 -3.7955,0.02055 -4.0039,0.02556l-0.37891,0.00912l0,0.03731l0,0.03731l-0.22605,0l-0.22605,0l0.00829,-0.20703z"
                    fill="#4d4d4d" id="svg_12" stroke-width="0.015625" transform="scale(0.26458333)" />
                <path
                    d="m273.42472,16.95624c-0.007,-2.51435 0.005,-11.42769 0.016,-11.91797c0.0166,-0.74218 0.0456,-1.24948 0.0729,-1.27682c0.0187,-0.01873 0.48695,-0.03659 1.38463,-0.0528c1.03001,-0.01861 7.89608,-0.01033 10.82031,0.01305c3.04775,0.02436 4.12334,0.03379 5.70313,0.04999c0.91094,0.00934 2.17656,0.02123 2.8125,0.02642c0.63594,0.00519 1.15976,0.01129 1.16406,0.01355c0.0127,0.00668 2.74676,0.0313 3.47656,0.0313c0.36954,0 0.67539,0.00449 0.67969,0.00998c0.007,0.00918 1.78817,0.03156 3.2414,0.04074c0.33473,0.00211 0.6195,0.00698 0.63282,0.01081c0.022,0.00632 2.12943,0.02698 2.56719,0.02517l0.18359,-0.00076l0,0.17l0,0.17001l-0.9414,0.0095c-0.51778,0.00523 -1.97149,0.01337 -3.23047,0.01809c-1.25899,0.00473 -3.65313,0.01526 -5.32032,0.02342c-1.66718,0.00815 -6.91953,0.03259 -11.67187,0.05432c-4.75234,0.02173 -9.13281,0.04583 -9.73438,0.05357c-0.90649,0.01166 -0.70318,0.01291 1.1875,0.00728c1.25469,-0.00374 4.30977,-0.01711 6.78907,-0.02973c4.08127,-0.02077 8.42956,-0.04141 18.09375,-0.0859c1.82617,-0.00841 3.65957,-0.01535 4.07422,-0.01542l0.7539,-0.00014l0,7.24219l0,7.24219l-16.14046,0l-16.14046,0l-0.004,-0.6836l-0.004,-0.68359l-0.004,0.68359l-0.004,0.6836l-0.22644,0l-0.22643,0l-0.00499,-1.83204zm0.46859,0.42285c-0.005,-0.01246 -0.009,-0.0088 -0.009,0.0094c-0.00068,0.01647 0.003,0.0257 0.008,0.02051c0.005,-0.0052 0.006,-0.01867 0.001,-0.02995l0,0.00004zm0,-0.20312c-0.005,-0.01246 -0.009,-0.0088 -0.009,0.0094c-0.00068,0.01647 0.003,0.0257 0.008,0.02051c0.005,-0.0052 0.006,-0.01867 0.001,-0.02995l0,0.00004zm0.00038,-4.14142c-0.004,-0.01944 -0.007,-0.0072 -0.007,0.02716c-0.00018,0.03437 0.003,0.05028 0.007,0.03534c0.004,-0.01494 0.004,-0.04306 0.00032,-0.0625l-0.00032,0zm0,-0.125c-0.004,-0.01944 -0.007,-0.0072 -0.007,0.02716c-0.00018,0.03437 0.003,0.05028 0.007,0.03534c0.004,-0.01494 0.004,-0.04306 0.00032,-0.0625l-0.00032,0zm0.006,-1.6949c0.003,-0.8612 -0.00037,-1.57077 -0.006,-1.57683c-0.006,-0.00606 -0.011,0.70149 -0.011,1.57233c0,0.87083 0.003,1.5804 0.006,1.57682c0.004,-0.0036 0.008,-0.71113 0.011,-1.57232zm0.011,-6.72057c0.004,-0.02953 0.0155,-0.03417 0.0859,-0.03578c0.0445,-0.00102 0.10204,-0.00781 0.12782,-0.0151c0.0367,-0.01036 0.0302,-0.01166 -0.0295,-0.00596c-0.042,0.00401 -0.10354,0.00728 -0.13672,0.00728c-0.0534,0 -0.0603,0.00435 -0.0603,0.03776c0,0.02077 -0.007,0.04134 -0.016,0.04571c-0.009,0.00437 -0.007,0.00616 0.004,0.00398c0.011,-0.00218 0.0222,-0.01923 0.0249,-0.03789l-0.0001,0z"
                    fill="#4d4d4d" id="svg_11" stroke-width="0.015625" transform="scale(0.26458333)" />
                <path
                    d="m273.42458,17.02655c-0.007,-2.41343 0.005,-11.5143 0.0157,-11.99609c0.0162,-0.71778 0.0466,-1.2422 0.0734,-1.26901c0.0187,-0.01873 0.48695,-0.03659 1.38463,-0.0528c1.03007,-0.01861 7.89659,-0.01032 10.82031,0.01305c3.13538,0.02507 4.14738,0.03392 5.71875,0.05004c0.91094,0.00934 2.17305,0.02132 2.80469,0.02661c0.63164,0.00529 1.15547,0.01163 1.16406,0.01409c0.009,0.00246 0.52188,0.0087 1.14063,0.01387c2.6146,0.02182 3.01834,0.02609 3.07031,0.03245c0.0531,0.00649 1.94414,0.02721 3.17969,0.03484c0.33516,0.00207 0.62695,0.00708 0.64844,0.01113c0.0352,0.00664 2.10184,0.02685 2.55078,0.02495l0.18359,-0.00078l0,0.17l0,0.17l-0.9414,0.00954c-0.51778,0.00525 -2.70274,0.01674 -4.85547,0.02553c-6.10569,0.02494 -10.35083,0.04871 -10.35938,0.058c-0.008,0.00828 1.63936,0.00256 7.70313,-0.02677c1.63711,-0.00792 4.20879,-0.01923 5.71484,-0.02514l2.73828,-0.01075l0,7.24448l0,7.24448l-16.14039,0l-16.14039,0l-0.004,-0.46484l-0.004,-0.46485l-0.004,0.46485l-0.004,0.46484l-0.22643,0l-0.22643,0l-0.00534,-1.76172zm0.46873,0.77442c-0.005,-0.01246 -0.009,-0.0088 -0.009,0.0094c-0.00068,0.01647 0.003,0.0257 0.008,0.02051c0.005,-0.0052 0.006,-0.01867 0.001,-0.02995l0,0.00004zm-0.00033,-4.8916c-0.004,-0.01074 -0.008,-0.002 -0.008,0.01953c0,0.02148 0.004,0.03027 0.008,0.01953c0.004,-0.01074 0.004,-0.02832 0,-0.03906zm0.001,-2.491c-0.002,-0.42819 -0.004,-0.08244 -0.004,0.76834c0,0.85078 0.002,1.20112 0.004,0.77853c0.002,-0.42258 0.002,-1.11868 0,-1.54687zm0.0146,-5.9282c0.002,-0.02983 0.001,-0.03122 -0.006,-0.00659c-0.005,0.01719 -0.0166,0.03706 -0.0263,0.04416c-0.0117,0.00853 -0.01,0.01077 0.006,0.00659c0.0129,-0.00348 0.0247,-0.02334 0.0263,-0.04416zm2.66118,-0.06127c0,-0.01006 -0.16146,-0.01563 -0.45313,-0.01563c-0.29167,0 -0.45312,0.00557 -0.45312,0.01563c0,0.01006 0.16145,0.01562 0.45312,0.01562c0.29167,0 0.45313,-0.00557 0.45313,-0.01562zm1.65133,-0.0117c-0.15309,-0.00256 -0.39918,-0.00256 -0.54687,0.00001c-0.14769,0.00257 -0.0224,0.00466 0.27835,0.00466c0.30078,-0.00001 0.42162,-0.0021 0.26852,-0.00466l0,-0.00001zm1.9346,-0.00961c0.0258,-0.00272 -0.28711,-0.00444 -0.69531,-0.00382l-0.74219,0.00112l0.57813,0.0081c0.54308,0.00761 0.74824,0.00632 0.85937,-0.0054zm0.80955,-0.00599c-0.12193,-0.00264 -0.32584,-0.00264 -0.45312,-0.00001c-0.12728,0.00263 -0.0275,0.00479 0.2217,0.00479c0.24922,0 0.35336,-0.00214 0.23142,-0.00478zm2.4717,-0.0031c0.60184,-0.00983 0.57535,-0.01052 -0.4375,-0.01139c-0.59296,-0.00051 -1.21523,0.00389 -1.38281,0.00977c-0.41662,0.01462 0.94959,0.01584 1.82031,0.00162zm3.19532,-0.01565l0.80468,-0.01033l-1.08593,-0.00094c-0.59727,-0.00051 -1.31094,0.00381 -1.58594,0.00961c-0.48958,0.01033 -0.48372,0.01056 0.28125,0.01128c0.42969,0.00039 1.14336,-0.00393 1.58594,-0.00961l0,-0.00001zm2.97656,-0.01574c0.3417,-0.01461 -0.83927,-0.01581 -1.51563,-0.00154c-0.4557,0.00961 -0.42178,0.01062 0.38282,0.01139c0.48554,0.00046 0.99531,-0.00397 1.13281,-0.00985z"
                    fill="#4d4d4d" id="svg_10" stroke-width="0.015625" transform="scale(0.26458333)" />
                <path
                    d="m273.94417,35.31142c-0.003,-2.46106 -0.0194,-6.18497 -0.0354,-8.27536c-0.016,-2.09038 -0.0331,-3.24882 -0.0379,-2.57431l-0.009,1.22639l-0.17163,0c-0.1493,0 -0.17445,-0.0148 -0.19337,-0.11379c-0.012,-0.06259 -0.0258,-0.69401 -0.0307,-1.40317c-0.005,-0.70915 -0.0158,-2.12464 -0.0242,-3.14552c-0.0236,-2.86118 -0.0244,-15.2028 -0.001,-15.9983c0.0114,-0.38891 0.0326,-0.82901 0.0471,-0.97801l0.0263,-0.27092l0.22833,-0.03028c0.12558,-0.01666 2.96318,-0.02928 6.30577,-0.02804c5.72522,0.00212 7.11413,0.00968 12.72866,0.06923c1.2518,0.01328 3.18087,0.03351 4.28683,0.04495c1.10596,0.01144 2.7765,0.03153 3.71231,0.04463c0.93581,0.01311 2.5268,0.0321 3.53554,0.04221l1.83405,0.01837l0.0137,0.15623l0.0137,0.15622l-0.80916,0.01312c-0.44503,0.00721 0.48353,0.01741 2.06347,0.02266c1.57995,0.00525 10.35028,-0.01927 19.48964,-0.05446c9.13935,-0.0352 24.60179,-0.08464 34.36097,-0.10986c9.75917,-0.02523 19.73767,-0.05297 22.17442,-0.06165l4.43047,-0.01579l0,5.18902l0,5.18902l-4.09901,-0.02666c-2.25446,-0.01467 -15.44476,-0.06489 -29.31179,-0.11161c-13.86702,-0.04672 -26.76036,-0.09377 -28.65185,-0.10455l-3.43907,-0.01961l-0.78147,0.28719c-7.48467,2.75057 -8.57391,3.16641 -10.85774,4.14517c-1.66107,0.71187 -4.79208,2.18595 -4.97185,2.34075c-0.0365,0.03139 -0.25522,0.15561 -0.48613,0.27604c-0.89306,0.46576 -1.42983,0.76862 -1.45104,0.81871c-0.008,0.01913 -0.0379,0.03482 -0.0663,0.03487c-0.0672,0.00009 -0.79304,0.43625 -0.83533,0.50191c-0.0179,0.02773 -0.0328,0.03537 -0.0331,0.01698c-0.001,-0.07043 -1.98942,1.22275 -1.98942,1.29411c0,0.02656 -0.0159,0.03844 -0.0354,0.0264c-0.0679,-0.04198 -1.97511,1.37472 -2.9035,2.1568c-0.94805,0.79864 -2.41979,2.20004 -3.1543,3.00354c-0.77282,0.84542 -1.33382,1.51251 -1.30022,1.54611c0.0153,0.01525 0.006,0.02773 -0.0199,0.02773c-0.0603,0 -1.00942,1.1987 -1.29291,1.63287c-0.0365,0.05584 -0.0863,0.12395 -0.11068,0.15136c-0.0794,0.08911 -0.46337,0.6515 -1.01472,1.48614c-0.97841,1.48112 -1.94067,3.17094 -2.7993,4.91579l-0.47262,0.96042l-6.92744,0.00081l-6.92743,0.0008l-0.00638,-4.47466zm-0.0516,-13.01518c-0.0111,-0.04254 -0.0202,-0.0077 -0.0202,0.07734c0,0.08507 0.009,0.11987 0.0202,0.07734c0.0111,-0.04254 0.0111,-0.11215 0,-0.15468zm-0.00027,-1.25677c-0.0141,-0.03525 -0.0246,-0.02478 -0.0267,0.0267c-0.002,0.04659 0.009,0.07269 0.0232,0.05801c0.0147,-0.01469 0.0163,-0.0528 0.003,-0.08471l0.0005,0zm0.00044,-0.37758c-0.0112,-0.043 -0.0211,-0.01852 -0.022,0.0544c-0.00091,0.07292 0.008,0.10811 0.0204,0.07818c0.0121,-0.02992 0.0128,-0.08958 0.002,-0.13258l-0.0004,0zm4.33262,-16.25785c-0.0147,-0.01468 -0.0528,-0.01625 -0.0847,-0.00349c-0.0353,0.01411 -0.0248,0.02458 0.0267,0.0267c0.0466,0.00192 0.0727,-0.00853 0.058,-0.02321zm1.61585,-0.00597c-0.15091,-0.0086 -0.40944,-0.00867 -0.57452,-0.00014c-0.16509,0.00853 -0.0416,0.01557 0.27437,0.01564c0.31599,0.00008 0.45106,-0.0069 0.30015,-0.0155zm0.97127,0.00368c-0.0299,-0.0121 -0.0896,-0.01284 -0.13258,-0.00164c-0.043,0.01121 -0.0185,0.02111 0.0544,0.02201c0.0729,0.0009 0.10811,-0.00827 0.0782,-0.02037l-0.00002,0zm2.05419,-0.00396c-0.23699,-0.00795 -0.62479,-0.00795 -0.86178,0c-0.237,0.00795 -0.0431,0.01445 0.43089,0.01445c0.47398,0 0.66788,-0.0065 0.43089,-0.01445zm0.59662,0.00368c-0.0304,-0.01226 -0.0801,-0.01226 -0.11048,0c-0.0304,0.01226 -0.006,0.02229 0.0552,0.02229c0.0608,0 0.0856,-0.01003 0.0552,-0.02229l0.00008,0zm2.78508,-0.04391c-0.0299,-0.01211 -0.0896,-0.01285 -0.13258,-0.00164c-0.043,0.0112 -0.0185,0.02111 0.0544,0.02201c0.0729,0.0009 0.1081,-0.00827 0.0782,-0.02037l-0.00002,0zm0.72836,-0.00321c-0.0911,-0.00953 -0.24031,-0.00953 -0.33146,0c-0.0911,0.00953 -0.0166,0.01733 0.16573,0.01733c0.1823,0 0.25688,-0.0078 0.16573,-0.01733zm2.25625,-0.00073c-0.23569,-0.00793 -0.63344,-0.00796 -0.88388,-0.00007c-0.25044,0.00789 -0.0576,0.01438 0.42854,0.01442c0.48614,0.00004 0.69104,-0.00642 0.45534,-0.01435zm3.20454,-0.00013c-0.39344,-0.00732 -1.04973,-0.00733 -1.45841,-0.00003c-0.40868,0.0073 -0.0868,0.01329 0.71535,0.0133c0.80212,0.00002 1.1365,-0.00596 0.74306,-0.01327zm8.41618,-0.04427c-1.01481,-0.00662 -2.6754,-0.00662 -3.69021,0c-1.01481,0.00662 -0.18451,0.01203 1.8451,0.01203c2.02962,0 2.85992,-0.00541 1.84511,-0.01203z"
                    fill="#4d4d4d" id="svg_9" stroke-width="0.044194" transform="scale(0.26458333)" />
                <path
                    d="m273.94356,35.09045c-0.004,-2.5826 -0.0118,-4.75529 -0.0177,-4.82821c-0.006,-0.07292 -0.0169,-1.31588 -0.0243,-2.76214c-0.007,-1.44625 -0.0201,-2.44559 -0.0281,-2.22076l-0.0146,0.4088l-0.17427,0c-0.14487,0 -0.17793,-0.01678 -0.1959,-0.09944c-0.0401,-0.1844 -0.0693,-5.8877 -0.0678,-13.22511c0.001,-7.07396 0.007,-7.80723 0.0673,-8.33745c0.0275,-0.24372 0.0321,-0.25065 0.18395,-0.27914c0.17576,-0.03297 11.98609,-0.03546 14.97307,-0.00315c2.49558,0.027 6.12712,0.06477 8.68416,0.09033c1.10595,0.01106 2.78644,0.03129 3.7344,0.04496c0.94797,0.01367 2.4793,0.03196 3.40295,0.04064l1.67938,0.01579l0.0136,0.15712l0.0136,0.15712l-0.30086,0.01552c-0.71999,0.03714 5.52943,0.0276 21.04494,-0.03212c9.13935,-0.03518 24.59184,-0.08457 34.33887,-0.10976c9.74702,-0.02519 19.72552,-0.05303 22.17442,-0.06187l4.45257,-0.01607l0,5.18925l0,5.18925l-4.09901,-0.02663c-2.25446,-0.01465 -15.44476,-0.06488 -29.31179,-0.11163c-13.86702,-0.04675 -26.76094,-0.09367 -28.65314,-0.10427l-3.44036,-0.01927l-0.53712,0.19832c-0.29541,0.10907 -1.78007,0.65545 -3.29924,1.21417c-5.13618,1.88897 -7.27305,2.74123 -9.76691,3.8954c-1.10081,0.50946 -2.86961,1.38323 -3.29247,1.62644c-0.17015,0.09786 -0.53806,0.29888 -0.81759,0.4467c-0.27953,0.14782 -0.59375,0.32551 -0.69828,0.39487c-0.10452,0.06936 -0.20184,0.1261 -0.21627,0.1261c-0.0313,0 -0.7772,0.44431 -0.80915,0.48201c-0.0122,0.01443 -0.11166,0.07403 -0.22097,0.13244c-0.27218,0.14546 -1.58457,0.99966 -1.7345,1.12894c-0.0668,0.05764 -0.12153,0.09499 -0.12153,0.08301c0,-0.05928 -1.44335,1.00561 -2.34229,1.72812c-1.63452,1.31374 -3.25497,2.88276 -4.61315,4.46673c-0.20842,0.24307 -0.37936,0.4668 -0.37987,0.49718c-0.00051,0.03038 -0.0168,0.05524 -0.0363,0.05524c-0.0483,0 -0.53915,0.6006 -0.53915,0.65973c0,0.02606 -0.0164,0.04738 -0.0365,0.04738c-0.0201,0 -0.11453,0.11013 -0.20993,0.24473c-0.0954,0.1346 -0.20328,0.2819 -0.23974,0.32734c-0.0365,0.04543 -0.0961,0.12586 -0.13259,0.17874c-0.0365,0.05288 -0.19326,0.26852 -0.34844,0.47921c-1.1392,1.54664 -2.49874,3.83701 -3.65739,6.16146l-0.52319,1.04961l-6.92788,0l-6.92787,0l-0.00706,-4.69563zm14.88841,-30.7306c-0.0147,-0.01469 -0.0528,-0.01626 -0.0847,-0.00349c-0.0353,0.01411 -0.0248,0.02458 0.0267,0.0267c0.0466,0.00192 0.0727,-0.00853 0.058,-0.02321zm10.45284,-0.05022c-0.15192,-0.00863 -0.40051,-0.00863 -0.55243,0c-0.15192,0.00863 -0.0276,0.01569 0.27621,0.01569c0.30384,0 0.42814,-0.00706 0.27622,-0.01569z"
                    fill="#4d4d4d" id="svg_8" stroke-width="0.044194" transform="scale(0.26458333)" />
                <path
                    d="m317.92738,15.85885c0.0101,-0.01 1.02425,-0.38785 2.25361,-0.83968c2.10684,-0.77434 2.25276,-0.82146 2.54117,-0.82057c0.30167,0.00093 0.27061,0.01271 -2.2131,0.8393c-2.32761,0.77463 -2.63317,0.87179 -2.58168,0.82095z"
                    fill="#4d4d4d" id="svg_7" stroke-width="0.044194" transform="scale(0.26458333)" />
                <path
                    d="m273.94492,35.39981c-0.003,-2.41245 -0.0114,-4.48571 -0.0186,-4.60724c-0.007,-0.12154 -0.0146,-1.31975 -0.0165,-2.6627l-0.004,-2.44173l-0.19803,0c-0.16988,0 -0.20092,-0.01413 -0.21834,-0.09944c-0.0621,-0.30426 -0.10768,-20.10859 -0.0484,-21.04748c0.0432,-0.68476 0.0617,-0.76248 0.189,-0.79442c0.1245,-0.03125 13.46772,-0.03355 15.54486,-0.00268c0.68059,0.01011 2.59972,0.03069 4.26474,0.04573c1.66501,0.01504 3.64381,0.03493 4.39732,0.04421c0.75351,0.00928 2.40416,0.02956 3.66812,0.04509c1.26395,0.01552 2.82511,0.03274 3.46924,0.03827l1.17114,0.01005l0.0135,0.15985c0.0115,0.13627 -0.002,0.16317 -0.0884,0.18241c-0.13736,0.0304 14.14245,-0.00626 32.18194,-0.08264c2.92897,-0.0124 13.21074,-0.04187 22.84839,-0.06548c9.63764,-0.02362 19.60619,-0.0522 22.15233,-0.0635l4.62934,-0.02056l0,5.19463l0,5.19463l-4.58515,-0.0278c-4.5636,-0.02767 -21.24074,-0.09016 -35.85252,-0.13435c-4.21723,-0.01275 -8.96037,-0.03296 -10.54031,-0.04489c-2.3823,-0.018 -13.3537,-0.03839 -13.91012,-0.02585c-0.1029,0.0023 -0.19923,0.03725 -0.25411,0.09212c-0.0535,0.05346 -0.0887,0.06656 -0.0891,0.03315c-0.00044,-0.03421 -0.013,-0.03842 -0.0331,-0.01105c-0.0179,0.02431 -0.0722,0.0502 -0.12086,0.05754c-0.0486,0.0073 -0.72106,0.2232 -1.49432,0.47969c-0.77326,0.25649 -1.41485,0.45742 -1.42576,0.44651c-0.041,-0.04103 2.79705,-1.05003 2.95347,-1.05003c0.0453,0 0.07,-0.01989 0.055,-0.04419c-0.015,-0.02431 -0.0608,-0.04419 -0.10166,-0.04419c-0.0816,0 -4.51759,1.62334 -7.21248,2.63937c-3.47907,1.31169 -5.95646,2.3717 -8.39689,3.59281c-0.92412,0.46241 -2.77066,1.45464 -2.96627,1.59393c-0.0654,0.04656 -0.13011,0.08465 -0.14384,0.08465c-0.0466,0 -0.80099,0.45623 -0.81581,0.49339c-0.008,0.02032 -0.0362,0.03694 -0.0624,0.03694c-0.0557,0 -0.23494,0.11073 -1.23762,0.76453c-0.40714,0.26547 -0.74026,0.49821 -0.74026,0.51719c0,0.01899 -0.0474,0.04642 -0.10532,0.06095c-0.0579,0.01454 -0.16829,0.08525 -0.24525,0.15714c-0.077,0.07189 -0.14756,0.12678 -0.1569,0.12199c-0.0602,-0.0309 -1.90652,1.40055 -2.78499,2.15921c-0.7338,0.63371 -2.04032,1.88394 -2.65307,2.53875c-0.53883,0.57582 -1.40356,1.57302 -1.43101,1.65024c-0.01,0.02818 -0.0419,0.07113 -0.0709,0.09544c-0.0289,0.02431 -0.15556,0.17346 -0.28137,0.33145c-0.12581,0.158 -0.28286,0.35465 -0.349,0.43701c-0.0661,0.08236 -0.1998,0.26266 -0.29703,0.40068c-0.0972,0.13801 -0.36469,0.50815 -0.59435,0.82253c-1.16353,1.59267 -2.4795,3.81565 -3.65443,6.1732l-0.47904,0.96122l-6.92792,0l-6.92791,0l-0.00505,-4.38628z"
                    fill="#4d4d4d" id="svg_6" stroke-width="0.044194" transform="scale(0.26458333)" />
                <path
                    d="m273.94644,35.66497c-0.002,-2.2666 -0.01,-4.20065 -0.0172,-4.29788c-0.007,-0.09723 -0.0153,-1.41477 -0.018,-2.92786l-0.005,-2.75109l-0.19803,0c-0.16987,0 -0.20093,-0.01414 -0.2184,-0.09944c-0.0662,-0.32333 -0.11248,-20.62584 -0.0483,-21.20497c0.0692,-0.62435 0.0636,-0.60547 0.1888,-0.63689c0.089,-0.02234 13.48488,-0.02483 16.07536,-0.003c1.81756,0.01532 8.19998,0.08078 8.66206,0.08884c0.31599,0.00551 2.17546,0.02458 4.13215,0.04236c1.9567,0.01778 3.58457,0.04088 3.61748,0.05133c0.0412,0.01306 0.0546,0.07411 0.043,0.19539l-0.0168,0.17639l1.43748,-0.00042c0.79061,-0.00023 6.44909,-0.01985 12.57441,-0.0436c15.65645,-0.0607 36.58093,-0.12625 49.07763,-0.15375c5.84578,-0.01286 12.43347,-0.03495 14.63932,-0.04909l4.01062,-0.02569l0,5.2013l0,5.20131l-5.20387,-0.02695c-16.31252,-0.08449 -40.87929,-0.16823 -51.54145,-0.17569l-8.3306,-0.0058l-1.58919,0.54198c-0.87405,0.29809 -1.60773,0.5358 -1.6304,0.52825c-0.0842,-0.02806 2.78093,-1.04813 2.94391,-1.04813c0.0451,0 0.0697,-0.01989 0.0547,-0.04419c-0.015,-0.02431 -0.0566,-0.04419 -0.0925,-0.04419c-0.0998,0 -5.73033,2.06801 -8.03924,2.9527c-4.47055,1.71293 -7.04774,2.91145 -10.89387,5.06617c-0.2066,0.11575 -0.43895,0.2581 -0.51633,0.31634c-0.0774,0.05824 -0.15303,0.10588 -0.16812,0.10588c-0.0688,0 -1.80281,1.12356 -1.92952,1.25027c-0.0351,0.03514 -0.10317,0.07636 -0.15117,0.09159c-0.048,0.01523 -0.15205,0.08685 -0.2312,0.15915c-0.0792,0.0723 -0.15828,0.13267 -0.17583,0.13416c-0.10107,0.0086 -1.65422,1.20127 -2.5281,1.94138c-0.72981,0.61811 -1.54231,1.37891 -2.41724,2.26344c-0.68231,0.6898 -1.7144,1.83593 -1.86472,2.07076c-0.0389,0.06077 -0.0929,0.13037 -0.12008,0.15468c-0.0397,0.03554 -0.38796,0.46293 -0.5402,0.66291c-1.77404,2.33045 -3.12084,4.50453 -4.5513,7.34694l-0.56141,1.11555l-6.92744,0.00035l-6.92743,0.00035l-0.00398,-4.12114z"
                    fill="#4d4d4d" id="svg_5" stroke-width="0.044194" transform="scale(0.26458333)" />
                <path
                    d="m273.94654,35.93014c-0.002,-2.12077 -0.0101,-4.01504 -0.0177,-4.20949c-0.008,-0.19446 -0.0157,-1.63132 -0.0181,-3.19303l-0.004,-2.83948l-0.19803,0c-0.16985,0 -0.20094,-0.01415 -0.21846,-0.09944c-0.0668,-0.32528 -0.11357,-20.62304 -0.0488,-21.20215c0.0704,-0.62982 0.0641,-0.60826 0.18951,-0.63975c0.12102,-0.03037 16.70066,-0.03693 16.75314,-0.00663c0.0161,0.00927 1.73949,0.03166 3.82988,0.04977c2.09038,0.01811 5.63033,0.05535 7.86656,0.08275l4.06586,0.04982l0.0265,0.19887l0.0265,0.19887l0.007,-0.19153l0.007,-0.19153l1.60204,0.02828c12.18702,0.21513 19.88347,0.25774 36.8027,0.20376c7.93617,-0.02532 18.53614,-0.05642 23.5555,-0.06911c5.01935,-0.01269 11.50761,-0.03503 14.41835,-0.04964l5.29225,-0.02656l0,5.20318l0,5.20319l-5.44693,-0.02976c-13.46169,-0.07356 -45.4399,-0.18086 -53.81746,-0.18059l-5.81153,0.00018l-1.58646,0.5427c-0.87256,0.29848 -1.60624,0.5361 -1.63041,0.52805c-0.0886,-0.02953 2.77586,-1.04904 2.94742,-1.04904c0.0643,0 0.075,-0.01321 0.0395,-0.04877c-0.0673,-0.06733 -0.12989,-0.04654 -2.70895,0.90021c-6.2716,2.30225 -8.41359,3.15039 -11.15902,4.4185c-1.2808,0.5916 -2.17148,1.03102 -3.0936,1.52626c-0.79121,0.42493 -2.27644,1.26156 -2.56326,1.44388c-0.12153,0.07726 -0.35024,0.21739 -0.50823,0.31142c-0.40781,0.24269 -1.512,0.96533 -1.59099,1.04123c-0.0365,0.03503 -0.12269,0.09283 -0.19162,0.12844c-0.0689,0.03561 -0.17437,0.11019 -0.2343,0.16573c-0.0599,0.05554 -0.12059,0.10099 -0.13479,0.10099c-0.10517,0 -1.92715,1.41915 -2.86434,2.23105c-1.20269,1.04191 -3.32469,3.20579 -3.86325,3.93949c-0.0628,0.08559 -0.19793,0.25336 -0.30024,0.37283c-0.2045,0.2388 -0.33478,0.40895 -1.0441,1.36371c-1.36985,1.84383 -2.68424,4.01617 -3.95284,6.53301l-0.56229,1.11557l-6.92744,0.00035l-6.92743,0.00035l-0.00514,-3.85594zm37.77893,-31.66507c-0.48006,-0.00713 -1.26561,-0.00713 -1.74567,0c-0.48006,0.00713 -0.0873,0.01297 0.87283,0.01297c0.96012,0 1.3529,-0.00584 0.87284,-0.01297zm11.71486,-0.04424c-1.37754,-0.00648 -3.6447,-0.00648 -5.03814,0c-1.39343,0.00648 -0.26636,0.01178 2.50462,0.01178c2.77097,0 3.91106,-0.0053 2.53352,-0.01178z"
                    fill="#4d4d4d" id="svg_4" stroke-width="0.044194" transform="scale(0.26458333)" />
            </g>
        </symbol>
    </defs>
    <g class="layer">
        <title>Layer 1</title>
        <use id="svg_48" transform="matrix(1.0743 0 0 1.20368 -0.592736 -0.22408)" x="0" xlink:href="#svg_47" y="0" />
        <g id="svg_49" />
    </g>
</svg>